<?xml version="1.0" encoding="utf-8"?>
<!-- Generator: Adobe Illustrator 22.1.0, SVG Export Plug-In . SVG Version: 6.00 Build 0)  -->
<svg version="1.1" id="Layer_1" xmlns="http://www.w3.org/2000/svg" xmlns:xlink="http://www.w3.org/1999/xlink" x="0px" y="0px"
	 viewBox="0 0 198.4 198.4" style="enable-background:new 0 0 198.4 198.4;" xml:space="preserve">
<style type="text/css">
	.st0{fill:#00818D;}
	.st1{fill-rule:evenodd;clip-rule:evenodd;fill:#D70F52;}
</style>
<g>
	<g>
		<path class="st0" d="M45.9,155.1h-1.3v-1.5h1.6l0.4-2.6h-1.5v-1.5h1.7l0.4-2.3h1.6l-0.4,2.3h2.4l0.4-2.3h1.6l-0.4,2.3h1.3v1.5
			h-1.6l-0.4,2.6h1.5v1.5h-1.7l-0.4,2.4h-1.6l0.4-2.4h-2.4l-0.4,2.4h-1.6L45.9,155.1z M50.1,153.6l0.4-2.6h-2.4l-0.4,2.6H50.1z"/>
		<path class="st0" d="M54.8,155.9h0.8c0.7-1.3,0.9-3.1,0.9-5.3v-1h6v6.2h1.1l-0.2,3.4h-1.5v-1.9h-5.4l-0.2,1.9h-1.5V155.9z
			 M60.8,155.9v-4.7h-2.6v1c0,1.4-0.3,2.7-0.7,3.7H60.8z"/>
		<path class="st0" d="M75.5,153.1c0-2.4,0.3-4.8,3.1-5.4l4.2-0.9l0.3,1.4l-4.2,0.9c-1.5,0.3-2,1.2-2,2.2c0.4-0.7,1.4-1.5,3-1.5
			c2,0,3.7,1.6,3.7,3.8c0,2.2-1.7,4-4,4C77,157.6,75.5,156,75.5,153.1z M81.8,153.7c0-1.3-1-2.4-2.3-2.4c-1.3,0-2.2,1.1-2.2,2.4
			c0,1.3,1,2.4,2.3,2.4C80.9,156.1,81.8,155,81.8,153.7z"/>
		<path class="st0" d="M85.8,149.7h1.8v1.3c0.6-0.8,1.4-1.5,2.6-1.5c1.8,0,3.6,1.5,3.6,4.1c0,2.6-1.8,4-3.6,4
			c-1.3,0-2.1-0.6-2.6-1.4v3.6h-1.8V149.7z M92.1,153.6c0-1.5-1-2.5-2.2-2.5c-1.2,0-2.3,1-2.3,2.5c0,1.5,1.1,2.5,2.3,2.5
			C91.1,156.1,92.1,155.1,92.1,153.6z"/>
		<path class="st0" d="M101,157.5v-1c-0.5,0.6-1.3,1.1-2.5,1.1c-1.5,0-2.8-0.8-2.8-2.4c0-1.7,1.3-2.5,3.2-2.5c0.9,0,1.5,0.1,2.1,0.3
			v-0.1c0-1.1-0.7-1.7-1.9-1.7c-0.9,0-1.5,0.2-2.2,0.5l-0.5-1.4c0.9-0.4,1.7-0.6,3-0.6c2.3,0,3.4,1.2,3.4,3.3v4.6H101z M101,154.2
			c-0.5-0.2-1.1-0.3-1.8-0.3c-1.1,0-1.8,0.5-1.8,1.2c0,0.7,0.7,1.2,1.5,1.2c1.2,0,2.1-0.7,2.1-1.6V154.2z"/>
		<path class="st0" d="M106.8,154.5c-1.1-0.3-1.8-1.1-1.8-2.3c0-1.5,1.1-2.5,3.1-2.5h3.9v7.8h-1.8v-2.6h-1.6l-1.8,2.6h-2.1
			L106.8,154.5z M110.2,153.5v-2.4h-1.9c-0.9,0-1.5,0.4-1.5,1.2c0,0.8,0.6,1.2,1.5,1.2H110.2z"/>
		<path class="st0" d="M114.8,149.7h1.8v3.7l3.4-3.7h2.1l-3,3.3l3.3,4.5h-2.1l-2.4-3.2l-1.3,1.3v1.9h-1.8V149.7z"/>
		<path class="st0" d="M128.7,157.5v-1c-0.5,0.6-1.3,1.1-2.5,1.1c-1.5,0-2.8-0.8-2.8-2.4c0-1.7,1.3-2.5,3.2-2.5
			c0.9,0,1.5,0.1,2.2,0.3v-0.1c0-1.1-0.7-1.7-1.9-1.7c-0.9,0-1.5,0.2-2.2,0.5l-0.5-1.4c0.9-0.4,1.7-0.6,3-0.6c2.3,0,3.4,1.2,3.4,3.3
			v4.6H128.7z M128.7,154.2c-0.5-0.2-1.1-0.3-1.8-0.3c-1.1,0-1.8,0.5-1.8,1.2c0,0.7,0.7,1.2,1.5,1.2c1.2,0,2.1-0.7,2.1-1.6V154.2z"
			/>
		<path class="st0" d="M132.3,156.4l0.8-1.2c0.7,0.6,1.6,0.9,2.4,0.9c0.8,0,1.5-0.4,1.5-1.1c0-0.6-0.6-1-1.6-1h-1v-1.3h1
			c0.8,0,1.4-0.4,1.4-1c0-0.5-0.5-0.9-1.3-0.9c-0.8,0-1.6,0.3-2.2,0.8l-0.8-1.1c0.8-0.7,1.9-1.1,3.2-1.1c1.7,0,2.9,0.9,2.9,2.1
			c0,0.9-0.5,1.5-1.2,1.8c0.8,0.3,1.4,0.9,1.4,1.9c0,1.3-1.2,2.4-3.1,2.4C134.4,157.6,133.3,157.2,132.3,156.4z"/>
		<path class="st0" d="M146,157.5v-1c-0.5,0.6-1.3,1.1-2.5,1.1c-1.5,0-2.8-0.8-2.8-2.4c0-1.7,1.3-2.5,3.1-2.5c0.9,0,1.5,0.1,2.2,0.3
			v-0.1c0-1.1-0.7-1.7-1.9-1.7c-0.9,0-1.5,0.2-2.2,0.5l-0.5-1.4c0.9-0.4,1.7-0.6,3-0.6c2.3,0,3.4,1.2,3.4,3.3v4.6H146z M146.1,154.2
			c-0.5-0.2-1.1-0.3-1.8-0.3c-1.1,0-1.8,0.5-1.8,1.2c0,0.7,0.7,1.2,1.5,1.2c1.2,0,2.1-0.7,2.1-1.6V154.2z"/>
		<path class="st0" d="M150.5,149.7h1.8v3.2h3.4v-3.2h1.8v7.8h-1.8v-3.1h-3.4v3.1h-1.8V149.7z"/>
		<path class="st0" d="M160.3,149.7h1.8v2.7h1.8c1.8,0,3.1,0.8,3.1,2.5c0,1.6-1.1,2.6-3,2.6h-3.7V149.7z M163.7,156
			c0.9,0,1.4-0.4,1.4-1.1c0-0.7-0.5-1.1-1.4-1.1h-1.6v2.2H163.7z"/>
		<path class="st0" d="M73.9,152c-0.3-1.3-1.2-2.2-2.5-2.4c-0.7-0.1-1.5,0-2,0.3c0,0,0,0,0,0v0c-0.6-0.3-1.3-0.4-2-0.3
			c-1.3,0.2-2.3,1.1-2.5,2.4c-0.3,1.5,0.1,4.4,4.6,6C73.8,156.5,74.2,153.5,73.9,152z M69.3,156.1c-3.3-1.4-2.9-3.1-2.8-3.7
			c0.1-0.6,0.4-0.9,0.9-1c0.5-0.1,1.3,0,1.9,0.6c0.6-0.5,1.3-0.7,1.9-0.6c0.5,0.1,0.8,0.5,0.9,1C72.2,153,72.6,154.7,69.3,156.1z"/>
	</g>
	<g>
		<g>
			<path class="st1" d="M79.1,108.4c-1.5-0.3-3.1,0.6-3.4,1.9c3.2,1,2.6,4.8,0.5,6.3c-3.1,2.2-7.8,0.6-10-1.4
				c-0.8-0.7-1.6-1.9-2.3-2.8c-0.7-1.1-1.5-2.1-2-3.2c-1.2-2.5-1.5-5.4-2.7-7.3c-0.5-0.8-2.1-2.3-2.7-2.7c-1-0.5-3.2-0.5-4.3-0.4
				c0.6-0.6,1.2-1.2,2-1.7c3.5-2,7.3-4.9,11.4-7.2c2-1.1,4.1-2,6.3-2.9c2.3-0.9,4.7-1.8,7-2c4.4-0.4,10.2-0.2,11.8,3.5
				c0.1,0.4,0,1,0.2,1.3c2-0.5,3-2.1,4-3.8c1.1-4-1.4-5.6-3.7-7.1c-0.5-0.3-0.8-0.8-1.1-0.9c-4.2-2.1-9.7-0.6-12.7,0
				C69.4,82,61.3,85.9,55,91.9c2.9-2.2,5.6-4.7,8.9-6.4c-4.6,3.1-9,7.1-13,10.5c1-1.7,2.9-2.4,4-4.1c-6,4.7-10.9,11.5-15.6,17.2
				c0.5-1.3,1.1-2.5,1.8-3.5c1.6-4,5.3-7.8,7.4-11.9c0.7-1.4,1.5-3.2,1.7-4.8c0.3-3.6-1.6-6.2-4-8c-2.2-1.7-5.1-1.8-8.3-1.8
				c-0.4,0.1-0.6,0.5-1.1,0.5c-2.3,0.3-3.7,0.9-5.6,1.7c-0.4,0.2,0,0.3-0.2,0.4c-0.2-0.2-0.3,0-0.6-0.1c-2.1,1.9-4.6,3.3-6.1,6
				c-1.3-1-2.5-2.3-4.1-2.9c-2.9-1-5.2-0.2-7.2,0.4c-3.2,1-5.6,3.9-7.1,6.8c-0.8,1.5-2,5.3-1.9,7.6c0.1,2.6,1.6,5.1,2.7,6.9
				c0.6,1,1,2.1,1.5,2.8c1.7,2.3,3.9,4.3,6,6.3c1.1,1,2.1,2.4,3.1,2.5c0.3,0.5-0.1,0.8,0.6,0.5c-0.1,0.4-0.2,0.4,0.1,0.7
				c0.8,0.1,0.9,0.8,1.4,0.6c0,0.3-0.2,0.2,0,0.5c1.5,0.7,3.4,2.6,4.8,3.9c0.6,0.6,1.5,1.4,2,2c1.6,2.3,1.4,6.7-1.2,8.4
				c-0.4,0.2-0.9,0-1.2,0.6c0.5,0.6,1.2,1.3,2.1,1.3c2.5,0.2,3.6-3.4,3.6-6c0-5-2.6-9.2-5.2-12.5c-0.5-0.7-1.1-1.4-1.7-1.6
				c0.3-0.4-0.4-0.6-0.4-1.1c-1-0.6-1.5-2.1-2.4-2.4c-1.5-2-3.9-4.2-5.4-7.1c-2-3.9-2.3-9.6-0.1-14.1c0.6-1.2,1.3-2.7,2.3-3.5
				c2.3-1.8,5.9,0.1,6.5,2.4c-1.4,2.9-1.5,9.3,0.6,10.4c1.1,0.6,2.4,0.1,3-0.5c0.8-0.8,1.2-2.5,1.1-3.8c-0.1-2.4-1.3-4.2-0.2-6.2
				c0.5-0.9,0.9-1.2,1.2-1.8c-0.1,0.1-0.1,0.2-0.2,0.3c0.1-0.1,0.1-0.3,0.3-0.4c0,0,0,0.1,0,0.1c0.4-0.5,0.7-1,1.2-1.5
				c0.9-0.9,2.3-2,3.4-2.4c3.7-1.6,8.1-0.1,9.2,3.5c-0.2,5.9-3.4,9.8-6.1,13.4c-3,5.7-6.9,10.4-7.8,18.2c0.6,0.8,0.2,1.5,0.5,2.3
				c0.5,1.8,2.7,2.5,3.8,3.7c1.2,0.3,2.5,0.1,2.9-0.8c-0.1-4.9,2.9-9.6,5.3-13c0.2-1.1,1.1-2.1,1.6-2.5c-0.1,0.7-1.1,1.1-0.9,1.6
				c0.9-1.3,2-2.5,3.1-4c0.8-1.1,2.2-3.1,3.3-3.7c1.3,0,2.2,2.2,2.8,3.3c0.6,1.2,1.1,2.5,1.4,3.6c1.1,0.8,1.4,2.7,2.5,3.2
				c0.2,0.8,1,1.5,1.6,2.2c0.6,0.7,1.3,1.8,2.2,1.8c0.1,0,0.1,0,0.1,0.1c-0.3,0.4,0.4,0.6,0.9,1c1.8,1.2,4.3,2.6,6.5,2.8
				c7.5,0.5,14.5-2.9,15.3-10.6C80.6,110,80.4,108.7,79.1,108.4z M93.2,82.6c-0.3,0.3-0.4-0.4-0.6-0.4C92.8,81.8,93,82.5,93.2,82.6z
				 M24.8,123c-0.3,0.1-0.8-0.4-0.8-0.8C24.3,122.4,24.4,122.8,24.8,123z M20.5,114.7c-0.3,0.2-0.4-0.6-0.7-0.6
				C20,113.8,20.2,114.5,20.5,114.7z M22.3,117.3c-1.2-0.7-2.5-2.2-3.3-3.5C20.1,114.5,21.1,116.2,22.3,117.3z M12.4,99.2
				c-0.3-0.2-0.1-0.7-0.2-1.1C12.5,98.2,12.4,98.8,12.4,99.2z M12,96c0.3,0.2,0.1,0.5,0,1C11.7,96.8,12,96.3,12,96z M11.4,98.1
				c0.6,0.3,0.1,1.4,0.1,2.2C11.3,99.7,11.2,98.8,11.4,98.1z M9.9,100c0,0.4,0.3,0.6,0.5,1c0.7,1.7,0.6,3.8,1.3,5.5
				c-1.1-2.4-2.9-6.2-1.6-9.1C10.2,98.3,9.8,99.2,9.9,100z M12.3,106.6c-0.7-0.6-0.7-1.8-1-2.7c0.7,0.6,1,1.6,1.4,2.4
				C12.3,106.2,12.2,106.3,12.3,106.6z M10,93.6c0.6,0.7-0.4,2.4-0.4,3.2C9.3,95.6,9.6,94.8,10,93.6z M9.6,103.1
				c-0.6-0.6-0.6-1.7-0.7-2.7C9.3,101.1,9.7,102.3,9.6,103.1z M8.3,98.5c0.3,0.7,0.1,1.8,0.3,2.5C8.3,100.3,7.8,99.3,8.3,98.5z
				 M8.8,103c0.4,0.9,1.2,1.9,0.8,2.5c0.9,1.2,1.6,2.5,2.5,3.7c-0.8-0.2-1.3-1.5-2-2c-0.3,1,1,1.5,1.1,2.5c-2.1-2.2-2.8-5.5-3.4-8.9
				C8.3,101.3,8.4,102.1,8.8,103z M7.3,93.7c-0.2,0.3-0.2,0.6-0.4,0.9C6.6,94.3,6.9,93.6,7.3,93.7z M5.3,96.2c0.2,0.1,0,0.8-0.1,0.9
				C4.8,96.9,5.4,96.7,5.3,96.2z M4.8,100.9c-0.4-0.5-0.4-1.3-0.4-2.2C4.7,99.3,4.7,100.2,4.8,100.9z M4.8,101
				c0.3,0.4,0.4,0.9,0.4,1.5C4.9,102.2,4.7,101.7,4.8,101z M6.6,95.5c0.1,0.1,0.2,0.3,0.4,0.4c0,0.5-0.2,0.8-0.3,1.1
				c0.1,0.4,0.3,0,0.4,0.3c0.1,3.9,1.3,6.9,2.3,10.1c-1.5-2.2-2.8-4.9-3.1-7.7c0.3,0.5,0.4,1.2,0.7,1.7C7,99.5,6,97.5,6.6,95.5z
				 M6,104.1c0.5,0.4,0.5,1.2,0.9,1.7C6.5,105.7,6.1,104.8,6,104.1z M6.3,101.6c0.9,2,1.7,4.1,2.9,5.9
				C7.8,106.3,6.8,103.9,6.3,101.6z M8.9,108.6c0.3-0.3,0.4,0.5,0.8,0.5C9.3,109.4,9.2,108.7,8.9,108.6z M8.5,107.2
				c0.9,0.7,1.4,1.8,1.9,2.8C9.7,109.3,8.9,108,8.5,107.2z M10.6,110.1c0.7,0.5,1.3,1.2,1.7,2C11.5,112,11,110.9,10.6,110.1z
				 M12.4,111.4c0.6,0.2,0.9,0.8,1.1,1.2C13,112.4,12.6,112,12.4,111.4z M12.6,110.9c-0.4-0.6-0.8-1.3-1.1-1.7
				c0.7,0.6,1.6,2,2.4,2.8C13.5,112.1,12.9,111.4,12.6,110.9z M13.1,108.7c1.2,0.1,1.5,1.9,2.4,2.6C14.6,110.9,14,109.3,13.1,108.7z
				 M15.3,113.8c0.5,0.1,0.7,0.6,1.1,0.9C16,114.8,15.4,114.2,15.3,113.8z M18.2,113.2c-1.4-1.2-3-3.2-4.4-4.7
				C15.3,109.6,16.8,111.6,18.2,113.2z M14.2,107.5c-1.2-0.4-1.5-1.8-2.2-3.3c-0.7-1.4-1.3-2.5-1.2-4.5
				C11.9,102.4,12.8,105.1,14.2,107.5z M12.5,102.5c0.3,0.6,0.9,1.4,0.6,2.1C12.8,104,12.3,103.6,12.5,102.5z M12.3,102.5
				c-0.4-0.5-0.5-1.3-0.4-2.3C12.2,100.8,12.6,101.8,12.3,102.5z M13,93.8c-0.3-0.3-0.2-0.9,0.3-0.9C13.2,93.1,13,93.3,13,93.8z
				 M24.2,98.9c-0.3-0.1-0.4-0.9-0.1-1.2C24.3,98,24.2,98.4,24.2,98.9z M25.1,95.5c-0.1-0.3,0-0.8,0.1-1.3
				C25.4,94.5,25.2,95.3,25.1,95.5z M25.5,87c0-0.5,0.9-0.7,0.6-1.2c0.4-0.1,0.8,0.3,0.8,0.4c0,0.2-0.3,0-0.3,0
				C26.4,86.3,25.8,86.8,25.5,87z M26.2,90.7c0.1-0.5,0.4-0.8,0.6-1.2C26.8,89.7,26.6,90.7,26.2,90.7z M26,98.2
				c-0.2-0.3,0.1-1.1,0-1.6C26.5,96.9,26,97.9,26,98.2z M30.5,82.2c-0.1,0.3-0.4,0.5-0.6,0.3C30,82.3,30.2,82.2,30.5,82.2z
				 M29.7,83.9c-0.2-0.2-0.3,0-0.6-0.1c0.3-0.6,0.9-0.8,1.5-1C30.3,83.2,29.9,83.5,29.7,83.9z M41.4,99.5c0.7-1.6,1.7-2.6,2.4-4.1
				c-0.1,1.6-1.4,3-1.9,4.5C41.7,99.9,41.9,99.4,41.4,99.5z M41.3,101c-0.8,1.7-1.8,3.2-2.7,4.8c0.4-1.7,1.9-3.2,2.6-4.9
				C41.4,100.9,41.4,101,41.3,101z M44.3,86.3c-0.6-0.6-0.9-1.4-1.2-2.3C43.8,84.5,44.6,85,44.3,86.3z M44.2,93.8
				c-0.3,0.8-0.8,1.3-1.1,2.1C43.2,95.4,43.6,94.1,44.2,93.8z M43.3,91.2c-0.2-0.4,0-1.1-0.1-1.8C43.6,89.7,43.3,90.5,43.3,91.2z
				 M43,87.4c0.6-0.2,0.6,0.7,0.6,1.2C43.2,88.3,43.3,87.7,43,87.4z M43.3,92c0.2,0.4,0,1.4-0.5,1.4C43,93,43.1,92.4,43.3,92z
				 M43.3,86.4c-0.3-0.1-0.5-0.3-0.5-0.6C43,86,43.4,86,43.3,86.4z M43,101c-0.3-0.2,0.2-0.4,0.1-0.7c0.1,0,0.2,0,0.3,0
				C43.3,100.6,43,100.7,43,101z M42,101.5c0.2-1.2,1.1-2.8,1.9-3.6C43.3,99.1,42.7,100.4,42,101.5z M44.7,88.8
				c0.1-0.7,0.1-1.4,0.2-2C45.1,86.9,45.3,88.4,44.7,88.8z M44.8,91.6c0.2-1.7,1.3-3.4,0.5-5.1c0.1-0.2,0.3-0.3,0.3-0.5
				C45.9,87.7,45.7,90.1,44.8,91.6z M45,96.5c-0.2-0.6,0.6-1.1,0.8-1.6C45.9,95.3,45.3,96.1,45,96.5z M47.9,90.2
				c-0.2,1.4-1,3.2-1.9,4.3C45.7,92.9,47.5,91.8,47.9,90.2z M49.7,89c0.4,0.2-0.2,0.9-0.2,1.4C49,90,49.7,89.4,49.7,89z M49.3,88.5
				c0.3-0.2-0.2,0.8-0.2,1C48.8,89.2,49.3,88.8,49.3,88.5z M48.7,84.7c0.4,0.1,0.1,0.7,0.3,0.7C48.7,85.8,48.6,85.1,48.7,84.7z
				 M47.3,95.3c-0.3-0.4,0.4-0.7,0.5-1.2C48.1,94.2,47.3,94.8,47.3,95.3z M48.4,84.5c-0.4,0.1-0.8-0.7-0.8-1.3
				C47.8,83.6,48.3,83.9,48.4,84.5z M46.6,86.8c0.7,1-0.2,2.5-0.3,3.9C46.2,89.4,46.6,88.4,46.6,86.8z M45.9,85
				c0.3,0.3,0.2,1,0.3,1.5C45.9,86.1,46,85.5,45.9,85z M46.1,84.3c-0.5-1-1.1-1.9-1.6-2.9C45.5,82.1,45.9,83.2,46.1,84.3z
				 M44.3,84.2c-0.7-0.2-1.2-0.6-1.4-1.3c0.4,0.2,0.8,0.3,1.2,0.5C44,83.9,44.4,83.8,44.3,84.2z M44.1,81c-0.5,0.8-1.3-0.4-1.8-0.5
				C42.9,80.2,43.7,80.8,44.1,81z M41.2,80.7c-0.4,0.6-1.1,0.4-1.9,0.3C39.7,80.7,40.5,80.8,41.2,80.7z M34.6,80.8
				c-0.5,0.3-1,0.5-1.7,0.6C33.4,81.1,34,80.9,34.6,80.8z M34.6,81.4c-0.5,0.4-1.1,0.6-1.9,0.7C33.2,81.8,33.9,81.6,34.6,81.4z
				 M36.9,82.2c-1,0.6-2.3,0.8-3.4,1.3C34.4,82.8,35.7,82.5,36.9,82.2z M32.5,82.7c0.5,0.1,0.9-0.1,1.4-0.1c-0.7,0.5-1.3,1-2.2,1.3
				C32,83.5,32.2,83.1,32.5,82.7z M33.1,84.2c1.2-0.8,2.9-1.8,4.7-1.2C36.2,83.5,34.6,83.8,33.1,84.2z M34.7,81.4
				c0.9-0.3,2.4-1.1,3.4-0.5C37.2,81.4,35.7,81.1,34.7,81.4z M39.8,82.7c-0.5,0-0.8-0.2-1.2-0.2C38.9,82.4,39.9,82.1,39.8,82.7z
				 M38.6,83.8c1.1-0.3,1.9,0.5,2.3,1.1C40.3,84.8,39.5,84,38.6,83.8z M41.1,81.7c0.4,0,0.7,0.1,0.9,0.3
				C41.9,82.3,41,82.1,41.1,81.7z M41.7,82.8c0.2-0.1,0.4-0.2,0.7-0.2c0.1,0.4,0.2,0.8,0.6,1C42.6,83.7,41.9,83.2,41.7,82.8z
				 M42.1,94.9c-0.1,0.4-0.1,0.9-0.6,0.7C41.6,95.3,41.6,94.9,42.1,94.9z M36.6,102.9c-0.3,1.1-1.2,2.4-1.9,3.4
				C35,105.1,36.1,104.1,36.6,102.9z M30.8,115.4c-0.3-0.7,0.4-1.4,0.4-2.1C31.3,114,31.1,114.7,30.8,115.4z M33.1,111.5
				c-0.3,1.9-1,3.3-1.3,5.2c0,0.4-0.2,0.1-0.1-0.1c0-2,0.7-3.6,1.4-5.1c0-0.2,0.1-0.2,0.1-0.1C33.3,111.4,33.2,111.5,33.1,111.5z
				 M32,113.8c0-2,1.2-3.7,2-5.2C33.6,110.2,32.4,111.8,32,113.8z M35,109.9c0.1,0.7-0.7,1.4-0.8,2.2
				C34.1,111.4,34.7,110.6,35,109.9z M34.2,114.6c-0.2-1,0.4-2,0.6-2.9C35,112.6,34.4,113.6,34.2,114.6z M36,105.8
				c-0.8,1.5-1.5,3.2-2.2,4.8c-0.1-0.7,0.4-1.7,0.8-2.3c0-0.3-0.1-0.5-0.4-0.5c1-1.6,1.8-3.4,3.1-4.8c-0.2,0.6-0.5,0.9-0.8,1.4
				c0.9,0,0.9-2.2,1.8-2.5c-0.1-0.1-0.3-0.1-0.2-0.4c1-1.7,1.6-3.8,3-5c-0.4,1.3-2,3.3-2.8,5.1c1.2-1.4,2.1-3.2,3.2-4.7
				c-1.2,3-3.8,5.5-5,8.8C36.3,106,36.2,105.9,36,105.8z M35.7,117.8c0,0-0.1-1.2,0.4-1C36,117.1,36,117.6,35.7,117.8z M36.6,106.3
				c0.4-0.7,0.7-1.4,1.1-2.1C37.7,104.9,37,105.8,36.6,106.3z M37.3,109.2c-0.1-1.1,0.9-2.1,1.3-3C38.6,107.3,37.7,108.2,37.3,109.2
				z M41.6,100.9c0.2,0,0.2,0.1,0.1,0.1c-0.8,1.5-1.2,3.5-2.6,4.3C40,103.9,40.9,102.5,41.6,100.9z M43.3,106.8
				c0.5-0.6,1-1.2,1.4-1.8C44.7,105.6,43.8,106.3,43.3,106.8z M45.4,102.3c-0.2-0.2,0.3-0.6,0.5-0.8
				C46.2,101.1,45.6,102.1,45.4,102.3z M64.9,115.5c-1-0.9-2-1.8-2.6-3.1C63.3,113.4,64.3,114.3,64.9,115.5z M56,112.4
				c0.3-0.4,0.3,0.4,0.7,0.3c-0.3-0.8-1.1-1.1-1.3-1.9c0.2,0.1,0.2-0.1,0.2-0.2c-0.1-0.7-0.6-1.2-0.7-1.9c0.8,1.4,2.3,2.8,2.5,4.5
				c-0.4,0-0.2-0.4-0.7-0.4c0.8,1.7,2.4,2.7,3.4,4.2C57.9,116.1,57.4,113.9,56,112.4z M58,115.8c-0.7-0.2-1.4-1.4-1.7-2.2
				C57,114.2,57.4,115.1,58,115.8z M55.9,113.1c-0.3-0.7-1.1-1-1.1-1.9C55.3,111.7,55.7,112.3,55.9,113.1z M55.5,107.8
				c-0.3-0.2-0.5-0.5-0.6-0.9C55.4,107,55.3,107.5,55.5,107.8z M54.8,105.8c0.3,0.4,0.7,0.7,0.8,1.3C55.2,106.8,55,106.3,54.8,105.8
				z M56,109.2c0.5-0.2,0.6,0.9,0.9,1.5c0.3,0.7,0.9,1.4,1,2C57,111.7,56.5,110.4,56,109.2z M61.4,117.8c-0.5,0.5-1.1-0.4-1.5-0.6
				C60.4,117,60.9,117.6,61.4,117.8z M57.7,113c1.7,0.4,1.8,2.2,2.9,3.1C59.7,115.5,58.3,114.3,57.7,113z M59.5,113.1
				c-0.7,0-0.9-1.2-1.3-1.8C58.8,111.7,59.4,112.2,59.5,113.1z M58.3,110.1c0.4,0.3,0.6,0.8,0.9,1.1
				C58.7,111.5,58.3,110.7,58.3,110.1z M59.8,113.1c1.5,1.1,2.3,2.7,3.8,3.8c-0.6,0-1.8-0.9-1.7-1.5c-1.2-0.4-2-1-2.4-2.1
				C59.6,113.4,59.8,113.3,59.8,113.1z M59.7,112.5c0.3-0.1,0.8,0.5,0.8,0.9C60.2,113.2,59.9,112.9,59.7,112.5z M60.7,112.8
				c1.1,1.1,2,2.3,2.9,3.5C62.4,115.8,61.3,114.2,60.7,112.8z M60.8,111.9c0.3,0.3,0.5,0.7,0.7,1.1
				C61.1,113.2,60.8,112.4,60.8,111.9z M62.1,113.3c0.8,0.8,1.2,1.9,1.9,2.7C63.2,115.3,62.6,114.4,62.1,113.3z M62.9,112.6
				c-0.7-1.1-1.9-1.8-2.1-3.3C61.5,110.3,62.5,111.2,62.9,112.6z M61.5,109.2c-1-0.3-1.3-2.2-1.8-3.2
				C60.8,106.2,60.8,108.3,61.5,109.2z M60.5,111.9c-1.5-1.3-1.9-3.5-3.1-5.1C58.5,108.1,60.1,109.8,60.5,111.9z M58.5,106.2
				c-0.3-0.1-0.2-0.5-0.5-0.6C58.3,105.3,58.5,106,58.5,106.2z M58.3,104.6c-1.1,0.4-1.3-1-1.8-1.4
				C57.2,103.2,57.8,104.2,58.3,104.6z M55.8,103.7c1.3,0.8,2.1,2.1,2.7,3.6c-0.9-1-1.6-2.2-2.7-3.1C55.6,104,55.6,103.9,55.8,103.7
				z M55.1,104.9c0.4,0.8,0.9,1.5,1.4,2.3c0.4,0.7,1.2,1.6,0.9,2.3c-0.6-0.4-1-1.4-1.4-2.2c-0.5-0.8-0.9-1.7-1.3-2.4
				C54.9,104.9,55,104.9,55.1,104.9z M55.1,108c0,0.2-0.7-0.8-1.1-1c-0.3-0.8-1.1-1.2-1.3-2.2C53.9,105.5,54.4,106.8,55.1,108z
				 M54.6,108.9c-0.9-0.7-2-2.2-2.7-3.6C53.2,106.2,53.9,107.6,54.6,108.9z M55.6,96.2c0.7-0.9,2.1-2.1,3.2-2.9
				C58.5,94.5,56.5,95.2,55.6,96.2z M56.1,95.1c0.4-1.2,1.8-1.2,2.5-2.1C58.2,93.7,56.8,94.8,56.1,95.1z M62.1,91.9
				c-0.6,0.3-1.2,0.7-1.7,0.9c0.8-0.8,2-1.3,2.9-1.9C63.5,91.2,62.6,91.6,62.1,91.9z M59.9,92.6c3.6-2.9,8.3-5.7,13.1-7.2
				c-1.3,0.8-3,1.7-4.3,2c0,0.2,0.1,0,0.3,0C66.2,89.5,62.6,90.6,59.9,92.6z M71.5,85c-3.5,2.2-7.7,3.9-11.1,5.9
				c1.1-1.5,3.8-2.8,5.6-3.5C67.4,86.1,69.5,85.6,71.5,85z M69,85.4c0.1-0.3,1-0.6,1.7-0.7C70.2,85.1,69.6,85.2,69,85.4z M82.9,81
				c0.6,0.2,1.5-0.1,2.4,0.1c-2.8,0.3-5.9,0.2-8.3,0.9c1.8-0.9,4.4-0.9,6.5-1.5C84.1,80.6,82.9,80.6,82.9,81z M83,82.5
				c-2.9,0.4-5.8,0.9-8.6,1.4C76.9,82.6,79.6,82,83,82.5z M78.2,83.9c0.6-0.6,1.9-0.5,2.9-0.5C80.3,83.6,79.2,83.8,78.2,83.9z
				 M80.7,84.1c-0.2,0.2-0.7,0.2-1.2,0.1C79.8,84,80.2,84,80.7,84.1z M74.6,84.5c0.8-0.6,2.1-0.6,3.2-0.9
				C77.3,84.1,75.5,84.1,74.6,84.5z M76.8,84.3c0,0.3-1,0.4-1.4,0.7C75.7,84.6,76.3,84.5,76.8,84.3z M72.3,83c0.7-0.5,1.7-0.8,2.6-1
				C74.7,82.1,73.2,82.8,72.3,83z M73.5,83.8c-0.6,0.3-1.4,0.9-2.1,1c0.8-0.8,1.9-1.2,3-1.6C74.7,83.5,73.8,83.6,73.5,83.8z
				 M73.2,83.2c-0.7,0.4-1.3,0.8-2.2,1.1C71.3,83.8,72.5,83.4,73.2,83.2z M63,89.7c-0.3,0.5-1.4,1-2.2,1.4
				C61.4,90.4,62.3,90.2,63,89.7z M70.1,87.6c2-1.7,5.7-2.5,8.8-3.3c0.6,0.5,1.8,0.1,2.8,0.3C77.3,85,73.5,86,70.1,87.6z M80.8,84.1
				c1.2-0.3,2.9-0.1,4.4-0.1C83.7,84.5,82.5,84.1,80.8,84.1z M84.5,82c-0.2-0.2,1.1-0.1,1.2,0.1C85.5,82.4,85,81.9,84.5,82z
				 M86.2,83.4c0.4-0.2,1.3-0.2,2.1,0.1C87.6,83.8,87.1,83.5,86.2,83.4z M87.8,81c0-0.2,1.2,0,1.6,0.1C89,81.2,87.9,81.3,87.8,81z
				 M85.7,78.6c1.1,0,3,0.1,3.8,0.9C88.1,79.2,86.9,78.9,85.7,78.6z M88.3,78.3c-1-0.1-4.2-0.3-5-0.3C84.8,77.7,86.8,77.6,88.3,78.3
				z M86.8,79.5c-1.1,0.6-2.8,0.1-4,0.3C83.6,79.1,85.5,79.1,86.8,79.5z M78.9,80.3c-1.4,0.3-2.7,0.7-3.9,0.9
				c2.3-0.9,4.8-1.4,7.5-1.8C81.9,80.2,80.2,80,78.9,80.3z M77.4,80c0-0.5,0.8-0.1,1-0.5C78.6,79.8,77.8,80,77.4,80z M78.9,79.6
				c0.7-0.4,1.6-0.5,2.5-0.7C80.8,79.4,79.8,79.4,78.9,79.6z M81.4,78c-0.6,0.3-1.3,0.3-2,0.4C79.8,78,80.5,77.9,81.4,78z
				 M79.3,78.2c-0.1,0.4-0.6,0.2-0.8,0.4C78.3,78.5,79,78.3,79.3,78.2z M70,82.5c2.9-1.7,5.9-3.5,9.7-3.8c-6.9,2-12.5,5.5-18,9.1
				C64,85.7,67.1,84.2,70,82.5z M67.6,84.7c1.3-0.7,2.3-1.7,3.7-1.8c0.2,0.7-0.9,1.1-1.9,1.5c-0.5,0.3-1,0.7-1.3,0.9
				c-0.9,0.4-1.8,0.6-2.7,1.1c-2.3,1.3-4.9,3.1-6.9,4.6C60.5,88.5,64.4,86.6,67.6,84.7z M56.9,93.6c-0.6,0.7-1.4,1.1-2.2,1.5
				c0.9-1,2-1.6,3.1-2.4C58.2,92.9,57.3,93.5,56.9,93.6z M57.2,92c-0.6,0.9-1.8,1.3-2.5,2.2c0.1-0.8,1.3-1.2,1.7-2
				C56.7,92.7,56.8,92.1,57.2,92z M55.3,92.5c-0.2,0.9-1.7,1.4-1.9,2.8c-0.5,0.2-0.6,0.7-1.2,0.8C52.7,94.7,54.4,93.8,55.3,92.5z
				 M52.7,99.4c-0.2,0.3-0.6,0.2-0.9,0.3C52,99.4,52.3,99.4,52.7,99.4z M52.3,109.2c-0.5-0.3-0.5-0.9-0.7-1.4
				C51.9,108.2,52.6,108.7,52.3,109.2z M52.9,109.6c0.3,0.3,0.6,0.6,0.6,1.2C53,110.6,53,110,52.9,109.6z M52.8,107.4
				c0.3,0,0.6,0.9,0.8,1.4C53.2,108.5,53.2,107.8,52.8,107.4z M54.7,110.4c-0.4-0.4-0.6-1.1-0.9-1.7C54.2,109.1,55,109.7,54.7,110.4
				z M61.2,119.4c0.3-0.3-0.2-0.2-0.2-0.5c-1.3-0.7-2.7-1.5-3.5-2.8c-0.8-0.3-1.3-1.4-2.1-2.2c-0.8-0.9-1.6-1.3-1.7-2.4
				c1.2,0.6,1.1,2.2,2.4,2.7c0.9,1.6,2.3,2.8,4,3.9c0.8,0.6,2,0.9,2.5,1.8C62.1,119.8,61.9,119.4,61.2,119.4z M61.8,118.2
				c0.4,0.1,0.9,0.2,0.8,0.8C62.4,118.7,61.8,118.7,61.8,118.2z M59.7,114.6c1.4,0.9,2.9,2.6,4.5,3.7C61.6,118,61,116,59.7,114.6z
				 M64.2,119.3c0.3,0.1,0.6,0.2,0.9,0.3C64.9,119.8,64.2,119.6,64.2,119.3z M65.7,117.1c0.3-0.2,1.3,0.7,1.9,1
				C67,118.1,66.3,117.3,65.7,117.1z M73,118.3c0.3-0.1,0.9-0.4,1.2-0.1C73.9,118.3,73.5,118.4,73,118.3z"/>
			<path class="st1" d="M176.9,88.5c-0.6-0.9-0.5-2-1.2-2.9c-1.3-1.6-3.6-1.7-5.8-1.6c-2.6,1.2-4.4,4.1-6.2,5.7
				c0.9-3.3,5.7-6.8,5.1-11.2c-0.2-1.6-2.2-3.9-4.3-3.1c-0.3,0.4,0,0.6-0.1,1.1c-1.6,4-4.1,7.4-6.4,10.3c-1.5,1.8-2.8,3.5-4.4,5.1
				c-0.8,0.8-1.5,1.9-2.6,2.2c0.9-5.3,2.8-9.3,5.2-12.9c0.8-1.2,1.4-2.5,2.3-3.6c0.9-1,2.1-1.7,2.9-2.8c-0.6-1.4-1.7-2.6-3.8-2.5
				c-2.7,0.1-3.9,3.1-5.2,5.1c-0.7,1.2-1.6,2.3-2.3,3.5c-0.2,0.3-0.1,0.8-0.3,1.1c-0.4,0.8-1.3,1.6-2,2.3c-1.9,2-4.1,3.3-7.2,3.6
				c1.5-2.4,3-4.9,5.2-6.5c0-2.7-2.6-4.4-5.8-4.5c-2.2,3.5-3.8,7.8-6.4,11.2c-1.3,1.7-8.1,10-9.1,9c-0.7-0.7,1.7-4.8,2.7-6.3
				c0.4-0.5,1.5-1,1.5-1.6c0.1-0.9-1.2-1.3-2.3-1.6c0.8-0.8,1-2.3,1-3.9c-0.2-1.6-1.6-2.6-3.4-3.1c-3.6-0.1-6.9,2.1-9.5,4.8
				c-3.3,3.4-7,8-6.3,12.9c0.3,2.2,1.7,3.4,4.1,2.9c2.9-0.7,5.5-3.7,7.6-5.2c0,0.1-0.1,0.1-0.1,0.2c-0.7,1.9-0.1,4.5,1.7,4.9
				c1.6,0.3,3.1-1,4.2-1.8c2.6-2,5.5-5.1,7.1-7.5c-0.8,3.7-0.5,7.4,3.2,8.2c0.1-0.9,0.2-2.3,0.4-3.5c0.4-2.4,1.9-4.7,2.9-6.5
				c1.7,1.7,5,0.6,6.6,0.1c-1.7,4.6,0.2,8.7,4,9.4c3.2-3.2,6.2-7.3,8.9-10.6c-1.3,2.5-2.5,7.2-0.8,9.3c-0.5-0.1-1,0-1.5,0.2
				c-0.5,2.8,0.9,4.4,2.9,5.5c2,0.6,4.4,0.7,6.4,0.3c3.7-0.8,7.5-5.5,9.5-9C176.5,93.4,177.2,91.1,176.9,88.5z M124.5,85.3
				c0,0.6-0.9,0.2-1.4,0.2C122.3,85.6,123.9,85.1,124.5,85.3z M119.9,87.6c0-0.1-0.1-0.1-0.2-0.1c0.9-0.4,2.1-1.6,3.2-1
				c-3,0.8-5,2.8-6.9,5c0.3-0.7,1.2-2.5,2.1-2.6C118,88.1,119.3,88,119.9,87.6z M117.8,87c0.4-0.8,1.4-0.8,2-1.3
				C119.5,86.1,118.6,86.8,117.8,87z M119.8,86.2c1-0.7,1.9-1.6,3.6-1.5C122.2,85.3,121,85.8,119.8,86.2z M122.5,84.3
				c-1.6,0.3-2.7,1.1-4.3,1.4c0.9-1.1,2.7-1.2,4.1-1.8C122.4,84,122.5,84.1,122.5,84.3z M119.8,84.3c-0.1,0.3-0.7,0.2-0.8,0.5
				C118.8,84.6,119.3,84.2,119.8,84.3z M120.2,81.8c0.1,0.3-0.6,0.7-1.1,0.7C119.3,82.1,119.9,82.1,120.2,81.8z M119.1,83.4
				c-0.3,0.7-1.1,0.9-1.7,1.2C117.8,84,118.4,83.6,119.1,83.4z M117.9,86.2c-0.2,0.4-0.7,0.4-0.9,0.8
				C116.6,86.8,117.4,86.2,117.9,86.2z M116.5,85.1c0.2,0.3-0.3,0.7-0.6,0.7C116,85.5,116.3,85.4,116.5,85.1z M115.2,86
				c0.4,0.4-0.4,1.1-0.5,1.6c-0.3,0-0.2-0.4-0.5-0.4C114.5,86.8,114.9,86.4,115.2,86z M113.3,89.1c0.3-0.5,0.7-0.9,1-1.4
				C114.4,88.2,113.7,88.8,113.3,89.1z M109.6,94.1c0.8-2.9,2.4-4.8,3.9-6.7c0.1,0,0.2,0,0.2,0.1C112.3,89.7,110.9,91.8,109.6,94.1z
				 M111.9,91.2c-0.4,0.3-0.3,1.1-0.9,1.2C111.3,92,111.4,91.3,111.9,91.2z M112.6,90.5c0.4-0.2,0.5-0.5,0.8-0.8
				c-0.4,2.1-2.1,3.8-2.9,5.8C110.3,93.8,111.9,92,112.6,90.5z M117.6,87.2c-2.5,2.3-4.9,4.8-6.6,8.2
				C112.2,92,114.2,88.5,117.6,87.2z M110.8,98c0.1-3.4,2.2-5.6,3.8-7.6C113.6,92.8,111.3,94.9,110.8,98z M116.6,89.3
				c0.1,0,0.2,0,0.3,0c0.2-0.2,0.4-0.5,0.6-0.7c-1.1,2.1-3.2,4.1-4.4,6.6C113.5,92.6,115.7,91.2,116.6,89.3z M113.4,100.6
				c0.1-0.2,0.4-0.4,0.7-0.4C113.9,100.5,113.7,100.6,113.4,100.6z M121.1,95.7c0.1-1,1.2-0.8,1.3-1.8
				C122.5,94.6,121.9,96,121.1,95.7z M122.4,99.5c-0.3-0.2,0.1-0.5,0.2-0.7C122.9,99,122.4,99.3,122.4,99.5z M120.4,92.7
				c-1.3,1.6-2.8,3.2-4,4c-0.9,0.6-3.2,1.7-3.2-0.3c1.4-2.8,3.5-5.9,6-7.8c1.5-1.1,4.4-2.7,6.4-0.7
				C123.2,88.4,122.1,90.6,120.4,92.7z M131,91.7c-0.1-0.4,0.7-0.8,0.9-1.3C132.1,90.5,131.3,91.4,131,91.7z M139.3,82.4
				c0,0.5-0.6,1.3-0.8,1.6c0,0.2,0.2,0.3,0.3,0.4c0.1-0.1,0.2-0.2,0.3-0.3c0.3,0.1-0.2,0.3-0.2,0.6c-0.3-0.1-0.2-0.5-0.6-0.4
				C138.4,83.5,138.8,82.9,139.3,82.4z M136.6,86.1c0.2,0.4-0.2,1-0.6,1.2C136.2,86.9,136.6,86.7,136.6,86.1z M134.9,93.3
				c-0.1-1,0.5-2.4,0.9-3.4C136,90.8,135.3,92.5,134.9,93.3z M136.1,86.1c0.3,0.4-0.3,0.8-0.4,1.1C135.4,86.9,136.1,86.5,136.1,86.1
				z M135.6,87.4c-0.1,1.1-0.6,2.7-1.2,3.5C134.3,89.7,135,88.3,135.6,87.4z M133.2,95.3c-0.5-0.3-0.4-1.3-0.3-1.9
				c0.1-1.1,0.6-2.4,1-3.1C134.1,91.6,133.1,93.8,133.2,95.3z M133.8,93.8c0.1-0.6,0.2-1.4,0.5-2C134.5,92.4,134.3,93.6,133.8,93.8z
				 M134.6,96.5c-0.5-0.3,0.5-1.4-0.2-1.3c0.1-0.6,0.1-0.9,0.5-1.4C135.2,94.3,134.7,95.6,134.6,96.5z M137.1,88.5
				c0.3-0.4-0.4,1.1-0.5,1.4c0,0.2,0.2,0.3,0.3,0.5c-0.4,1.1-0.8,2.4-1.5,3.4C135.5,91.7,136.4,90.2,137.1,88.5z M135.9,95.6
				c0-1,0.6-2.2,1-3.1C136.9,93.4,136.2,94.6,135.9,95.6z M137.5,89.1c-0.4-0.1,0.1-1.1,0.6-1.1C137.9,88.4,137.7,88.7,137.5,89.1z
				 M138.4,91.2c-0.2-0.5,0.4-0.9,0.5-1.4C139.4,90.1,138.5,90.8,138.4,91.2z M138.2,87.4c0.1-0.5,0.5-1.5,1.2-1.6
				C139.1,86.5,138.9,87.2,138.2,87.4z M140.7,86.9c0.3-0.8,0.7-1.4,1.3-1.8C142,85.6,141.2,86.4,140.7,86.9z M141.3,81.1
				c-0.4,0.6-0.9,1.1-1.3,1.7C140.2,82.4,140.7,81.3,141.3,81.1z M151.9,88.4c0.4-1.3,1.2-3.3,2.1-4.4
				C153.6,85.5,152.9,87.1,151.9,88.4z M152,87.3c0.4-1.9,1.6-3.9,2.6-5.6C153.9,83.6,152.9,85.3,152,87.3z M154.4,80.7
				c0,0.3-0.3,0.4-0.4,0.7C153.7,81,153.9,80.5,154.4,80.7z M152.5,79.2c0.5,0.1-0.2,0.4-0.2,0.8C152,79.8,152.5,79.5,152.5,79.2z
				 M151.2,81.2c0.4,0.4-0.4,1.2-0.7,1.5C150.3,82.2,151.1,81.8,151.2,81.2z M143.8,89.5c-0.2-0.6,1-0.1,1.4-0.6
				C144.9,89.4,144.3,89.4,143.8,89.5z M143.7,88.7c0.2-0.5,1.3-1.8,1.9-1.8C145.1,87.7,144.3,88.1,143.7,88.7z M145.7,88.5
				c0.3-0.3,0.4-0.7,0.9-0.7C146.4,88.1,146.1,88.4,145.7,88.5z M145.8,92.7c0.2-0.3,0.2-0.9,0.3-1.2
				C146.3,91.7,146.3,92.8,145.8,92.7z M146.9,92.2c-0.4-0.4,0-0.9,0.1-1.5C147.3,91.1,146.9,91.8,146.9,92.2z M147.1,87
				c-0.1,0,0.9-0.9,1.3-1.3C148.4,86.1,147.5,86.7,147.1,87z M147.1,94.5c-0.3-0.5,0.2-1.2,0.2-1.7
				C147.6,92.9,147.2,94.2,147.1,94.5z M148.6,87.1c0.3,0.4-0.2,1-0.5,1.2C147.9,88,148.3,87.3,148.6,87.1z M148.1,93.7
				c-0.1-1.2,0.6-2.6,0.9-3.7C149,91.1,148.3,92.4,148.1,93.7z M148.8,89.9c-0.3-0.4,0.2-1,0.4-1.3
				C149.3,88.9,148.8,89.4,148.8,89.9z M149.1,95.7c0.1-0.4,0.2-0.9,0.2-1.5C149.4,94.1,149.5,95.8,149.1,95.7z M148.9,91.9
				c0.4-1.2,0.8-2.4,1.2-3.5c0.1,0,0.2,0,0.3,0C149.9,89.5,150,91.4,148.9,91.9z M151.2,83.9c-0.6,0.6-0.5,1.9-1.3,2.2
				c0.8-2.3,1.7-4,2.9-6c0.2,0,0.2,0.1,0.3,0.1c-0.7,1.3-1.2,2.6-1.8,4C151.1,84.1,151.2,84,151.2,83.9z M153.5,80.5
				c0,0.8-0.8,1.7-1.1,2.4C152.4,82.1,153.1,81.2,153.5,80.5z M151,87.2c0.8-1.8,1.5-3.6,2.8-5.1C153.3,83.8,152,86.2,151,87.2z
				 M174,92.1c0.3,0.2,0,0.7-0.1,0.9C173.6,92.8,174.1,92.5,174,92.1z M173.5,89.6c0.3,0.4-0.1,2.1-0.6,2.5
				C173,91.1,173.3,90.4,173.5,89.6z M172.7,92.8c-0.3,1.1-1,2.8-2.1,3.2c0.2,1-1.3,2-1.9,2.9c-0.1-0.1-0.2-0.2-0.3-0.3
				c-0.3,0.7-0.9,0.9-1.5,1.2C168.5,97.7,171,95.4,172.7,92.8z M169.3,98.9c0.6-0.8,1.3-1.4,1.9-2.1C171,97.5,170,98.5,169.3,98.9z
				 M169.2,100.4c-0.2-0.3,0.5-0.6,0.7-1C170.2,99.9,169.4,100.1,169.2,100.4z M162.2,100.9c1.2-0.9,3.1-1,4.3-2
				c0.2,0.6-1.7,1.7-2.7,1.8c-0.2,0-0.3-0.2-0.2-0.2C163.2,100.6,162.7,101.1,162.2,100.9z M168.3,100.2c0.5,0-0.2,0.4,0.3,0.5
				c-1,0.5-1.6,1.3-2.9,1.5C166.5,101.4,167.6,101,168.3,100.2z M168.6,96.8c0.4-1.6,2-3,2.7-4.7C171.2,94.1,169.7,95.5,168.6,96.8z
				 M163.1,88.7c-0.1-0.8,0.4-1.5,0.9-1.9C163.9,87.2,163.4,88.1,163.1,88.7z M161,90.4c0.1-2,1.6-3.4,2.3-5.1
				c0.2,0,0.2,0.1,0.1,0.1C162.6,87.2,161.6,88.6,161,90.4z M162.2,91.1c-0.1-0.2,0.3-1.2,0.7-1.6C163,89.8,162.4,90.6,162.2,91.1z
				 M161,88.2c-0.2-0.5,0.4-1.1,0.6-1.5C161.9,86.9,161,87.7,161,88.2z M165.4,84.4c-0.1,0.5-0.5,1.8-1.2,2
				C164.6,85.7,165,85,165.4,84.4z M163.8,84.6c0.1-0.5,0.4-0.8,0.7-1.2C164.5,83.6,164.2,84.5,163.8,84.6z M164.1,81.6
				c-0.2,0.2-0.4,0.5-0.5,0.8C163.4,82.2,163.7,81.6,164.1,81.6z M163.8,82.8c0,0.8-0.8,1.8-1.2,2.6
				C162.6,84.4,163.5,83.6,163.8,82.8z M162.6,83.6c-0.3,1-1.2,2.5-1.9,3.4C160.8,85.7,162.2,84.8,162.6,83.6z M158.5,93.4
				c-0.1-0.7,0.3-1,0.4-1.5C159.2,92,158.9,93.3,158.5,93.4z M160.1,94.2c-0.3-0.8,0.4-1.4,0.3-2.4c0.5-0.9,1-1.8,1.5-2.7
				c0.2,0.1-0.1,0.7-0.3,0.8C161.3,91.5,160.5,92.7,160.1,94.2z M161.3,100.7c-0.5,0.1-0.4-0.3-0.8-0.3c0.4-0.2,1.2,0.1,1.6-0.2
				C162,100.5,161.6,100.6,161.3,100.7z M160.6,99.5c1-3.3,2.8-5.6,4.7-7.8c1-1.5,2.6-3.6,4.6-3.8c0.9-0.1,1.4,0.5,1.5,1.2
				c0.4,3-2.5,6-3.7,7.4c0.2,0.3,0.4-0.5,0.7-0.4c-0.8,1.7-2.3,2.6-4,3.2c-0.3-0.4,0.7-0.6,0.9-0.8C163.9,99,162.9,100,160.6,99.5z
				 M163.9,101.2c-0.7,0.2-0.9,0.8-1.8,0.8C162.3,101.2,163.2,101.4,163.9,101.2z M163,102.6c0.2-0.6,1-0.6,1.4-1
				C164.3,102,163.7,102.6,163,102.6z M165.7,101.1c-0.4,0.4-0.8,0.8-1.5,0.9C164.7,101.7,165.1,100.9,165.7,101.1z M164.5,102.5
				c0.4-0.3,0.8-0.7,1.3-0.8C165.3,101.9,165.1,102.5,164.5,102.5z M167.9,101.6c0.1,1-1.7,1.7-2.8,2
				C165.9,102.8,166.8,102.1,167.9,101.6z M165.2,104.2c0.7-0.2,1.6-1.5,2.1-0.7C166.8,103.9,166.1,104.1,165.2,104.2z M167.6,102.9
				c0-0.5,0.5-0.3,0.6-0.6C168.5,102.5,167.9,102.9,167.6,102.9z M169.9,101.9c-0.3-0.3,0.4-0.4,0.4-0.6
				C170.6,101.5,169.9,101.6,169.9,101.9z M168.3,101.8c0.5-0.9,1.5-1.2,2.4-1.7C170.8,100.8,169.2,101.5,168.3,101.8z M171.2,99.7
				c0.4-0.5,0.9-0.9,1.3-1.5C172.8,98.6,171.8,99.5,171.2,99.7z M173,96.8c-0.6,0.9-1.2,2.4-2.5,2.2c0.1-0.4,0.4-0.8,0.8-0.5
				c1.4-1.4,2.4-3.3,3.5-5.1c0.1,0,0.1,0.2,0.1,0.4C174.5,94.7,173.7,95.7,173,96.8z M174.9,91.1c0.1-0.3,0.2-0.5,0.3-0.9
				C175.4,90.4,175.2,91.1,174.9,91.1z"/>
			<path class="st1" d="M152,104.6c-4.1-0.8-10.2-1.9-14.8-2.3c-0.4,0-0.3,0.6-0.7,0.5c-2.3,0.4-5.5,0.3-8,0
				c1.3-0.2,3.2,0.2,4.2-0.4c-8.4,0.2-17.3,0.8-24.9,3.1c-0.8-2.8-4.1-3.5-6.8-4.7c1.4-1,2.9-2.7,4.2-4.5c1.3-1.8,2.9-3.5,3.6-5.4
				c0.5-1.5,0.6-3.3,0-4.2c-1.5-2.4-5.8-0.8-7.3,0.1c-1.7,1-2.2,1.4-3.4,2.7c-3.5,3.7-7.5,8.2-9.6,13.2c-0.8,0.6-0.9,2.1-1.8,2.5
				c-0.7-0.3-0.9-0.7-0.8-1.4c0.2-2.7,2.8-6.7,4.3-8c-0.2-1-1.2-1.3-1.8-2c0.5-1.5-0.1-3-0.7-3.7c-1-1.1-3.3-1.9-5.2-1.7
				c-3.9,0.3-7.2,3.2-9.3,5.8c-2,2.5-4.1,6.1-4.8,9.5c-0.6,2.9,0.2,5.2,2.7,5.6c4.7,0.9,7.1-3.5,9.7-5c0.4,3.1,2.4,5.4,6.4,5.2
				c1.8-6.1,5.6-9.7,8.6-14.3c1-1.2,4.4-4.8,5.9-4.7c2,0.1,0.5,3-0.2,4.2c-1,1.8-2.7,3.3-4.1,4.7c-0.8,0.8-1.6,1.7-2.3,2.2
				c-0.5,0.4-1.3,0.6-1.6,1c-1,1.3-0.2,2.6,0.1,3.1c1.2,0.2,1.9-0.9,3-1.2c2.6-0.8,5.8,0.6,5.8,3.2c-1.4,0.5-2.8,0.8-3.9,1.6
				c0.3,0.2,0.6-0.3,0.7-0.1c-0.4,0.1-1,0.7-1.3,0.5c0.1-0.2,0.4-0.1,0.6-0.3c-2.9,1-5.9,2.9-8.6,4.5c-1.4,2.3-5.8,4-5.3,7.9
				c0.1,0.4,0.3,1.1,1,1.1c0.5-0.2,0.4-0.8,0.7-1.2c0.8-1.2,2.1-1.9,2.4-3c0.4,0.4,0.6-0.8,1.1-0.4c0-0.3,0.1-0.4,0.2-0.6
				c3.8-2.1,7.7-5.1,12.6-6.3c-0.6,3.4-2,5.9-4,8.2c-1.7,2.1-3.9,3.6-5.7,4.9c-0.4,0.3-1,0.6-1.3,0.7c-2.1,0.5-3.4-0.3-4.1-1.9
				c-1.6,0.1-1.9,2.2-1.7,3.8c0.6,4.2,4.4,5.1,5,5.1c1.4,0.1,7.1,0.1,10-3.4c0.6-0.6,1.9-1.4,1.8-2c-0.2,0.2-0.6,0.9-0.9,0.7
				c1.4-1.5,2.6-3.3,4-4.8c-0.1,0.5-0.8,0.9-0.6,1.4c2.7-4.7,4.6-8.6,4.3-14.6c8.3-1,18.5-1.8,28.1-0.2c1,0.2,1.9,0.7,3,1
				c1.6,0.4,9.8,3,11.2,4c1.9,1.3,4.5,3,4.8,5.2c0.1,0.7-0.3,1.2-0.1,1.8c5.6,0.2,5.2-8.4,3-11.2C158.1,107.3,155.1,106,152,104.6z
				 M108.5,88.2c0.4-0.1,0.1,0.5,0.2,0.8C108.4,89,108.5,88.5,108.5,88.2z M107.2,89c0.4,0.6-0.4,2-0.6,2.7
				C106.3,91.1,107.2,90,107.2,89z M106.4,88.5c0.4,1-0.2,1.9-0.4,2.9C105.9,90.9,106.3,89.5,106.4,88.5z M79.7,93.4
				c-0.9,0.6-1.9,0.7-2.1,2c-0.6,0.4-0.9,1-1.6,1.2c-0.1,0.2-0.6,1-0.6,0.5c0.7-1.2,1.8-2,2.5-3.2c2.2-1.2,3.9-2.8,7.2-2.7
				C82.9,91.4,81.3,92.3,79.7,93.4z M81.1,94.1c-0.1,0.4-0.5,0.3-0.6,0.6C80.2,94.4,80.8,94.1,81.1,94.1z M78.9,95.1
				c-0.9,1.1-2,1.8-2.8,3C76.5,96.9,77.6,95.5,78.9,95.1z M83.4,90.5c-2.3,0.7-4.1,2-6,3.1c0.5-0.7,1.2-1.1,2.1-1.4
				c0-0.2-0.1-0.3-0.1-0.5C80.7,91.3,81.6,90.3,83.4,90.5z M80.9,89.6c0.2-0.1-0.8,0.5-1.2,0.5C80,89.8,80.4,89.6,80.9,89.6z
				 M79.7,91c-0.3,0.4-0.8,0.4-1.1,0.8C78.4,91.3,79.3,91.1,79.7,91z M78.2,91.8c-0.5,0.6-1.1,1.1-1.8,1.4
				C76.9,92.8,77.4,92.2,78.2,91.8z M76.3,92.7c0.1,0.2-0.4,0.8-0.8,1C75.6,93.2,76.1,93.1,76.3,92.7z M74.1,94.2
				c-0.7,2-2.6,3.8-3.3,6.2C71.1,97.9,72.7,95.9,74.1,94.2z M70.9,101.8c0-1.3,0.8-3,1.6-4.3c0.8-1.3,2-2.4,2.7-3.6
				c0.1,0,0.1,0.1,0.1,0.2c0,0.8-1.4,1.1-1.4,2.4C72.6,97.8,71.9,100.1,70.9,101.8z M71.8,102c0.6,0.5,0,2.1,0.3,2.9
				C71.6,104.3,71.7,103.1,71.8,102z M72.2,101.4c1-2.9,2.6-4.9,4.3-6.9c0.1,0,0.1,0.2,0.1,0.4c-1.5,1.4-2.3,3.7-3.4,5.6
				C72.8,100.7,72.6,101.2,72.2,101.4z M73.3,102.6c-0.2-0.1,0-0.6,0-0.8C73.8,101.9,73.3,102.3,73.3,102.6z M74.8,99
				c0.1,0.1-0.6,1.3-0.9,1.9C73.6,100.4,74.6,99.5,74.8,99z M73.7,105.9c0-0.1,0-0.2,0-0.2c0.3,0,0.4,0.1,0.6,0.2
				C74.2,105.9,73.8,106.1,73.7,105.9z M83.9,102.1c-0.1,0.6-0.1,1.2-0.2,1.8C83.2,103.8,83.4,102.1,83.9,102.1z M84.4,98.8
				c0.2,0.5-0.5,1.1-0.6,1.7C83.7,100,84.2,99.2,84.4,98.8z M83.7,106.5c-0.1-0.3-0.1-0.8-0.1-1.3C83.9,105.5,84,106.3,83.7,106.5z
				 M84.4,103.2c0.5,0.2-0.2,0.7,0.1,1C84.1,104.6,84.4,103.5,84.4,103.2z M84.4,105.9c0.2,0.2,0.4,0.4,0.4,0.8
				C84.5,106.6,84.3,106.4,84.4,105.9z M85.2,104.7c-0.8-0.4,0.1-1.6,0-2.4c0.1,0,0.2,0,0.3,0C85.3,103.2,85.5,103.9,85.2,104.7z
				 M82.1,99.2c-1.5,2.1-3.2,4-5.5,5.2c-0.7,0.4-1.6,1-2.6,0.5c-0.2-3.4,2-6.2,4.2-8.3c2-1.9,4.9-3.6,8.4-2.8
				C84.5,94.6,83.6,97.1,82.1,99.2z M103.9,95.3c0.3-0.4,0.6-0.7,0.8-1.2C105.1,94.4,104.4,95.4,103.9,95.3z M105.6,89.4
				c0.5,1.2-0.5,2.8-1,3.6C104.9,92.1,105,90.2,105.6,89.4z M104.3,91.8c0,1-0.6,2.4-1.4,2.8C103.4,93.7,103.9,92.8,104.3,91.8z
				 M102.8,95c0.2,0.6-0.6,1-0.7,1.7C101.6,96.2,102.5,95.4,102.8,95z M100.5,96.7c0.9-1,1-2.1,1.9-2.9c-0.8,2.4-2.9,4.4-4.6,6.2
				C97.6,98.9,99.6,97.8,100.5,96.7z M96.5,101.2c0.2-0.4,0.6-0.5,0.9-0.8C97.5,100.6,96.9,101.2,96.5,101.2z M97.6,101
				c0.2-0.4,0.4-0.8,1.1-0.7C98.4,100.7,98.2,101,97.6,101z M98.8,100c0.4-1.1,1.9-1.9,2.7-3c0.1,0,0.2,0,0.2,0.1
				C100.9,98.3,100,99.4,98.8,100z M99.8,100.8c-0.1-0.4,0.6-1,1.1-1C100.7,100.2,100.2,100.5,99.8,100.8z M89.8,116.4
				c-0.2-0.3,0.5-0.7,0.9-0.8C90.5,115.9,90.1,116,89.8,116.4z M96.8,110.8c-1,1-3,1.8-4.5,2.6C93.5,112.2,95.1,111.5,96.8,110.8z
				 M93.5,113.7c1-0.9,2.2-1.4,3.5-1.9C95.9,112.5,94.7,113.2,93.5,113.7z M152.7,107.3c-2.2-0.5-4-1.3-5.8-2.1
				C149.1,105.2,151.3,106.2,152.7,107.3z M149.8,109.9c-3.5-0.4-6.3-1.9-9.8-2.7c2.3-0.1,5.1,1.1,7.4,1.7c0.5,0.2-0.2,0.1-0.3,0
				C147.5,109.6,148.9,109.6,149.8,109.9z M154.4,112.6c-1.7-0.4-3.3-1.8-5.3-2.3C151.1,110.5,153,111.6,154.4,112.6z M131.3,105.8
				c-1.3-0.1-2.6,0.2-3.9,0.2c-3.6,0-7.2-0.2-10.3,0.4c-0.8,0.2-1.7,0.8-2.9,0.5c3.9-1.5,8.7-1.7,13.5-1.3c-0.2-0.3-1-0.1-1.5-0.2
				c6.7-0.1,15,0.2,20.7,2.3c1.8,0.7,3.6,1.5,5.4,2.8c0.2,0.1,0.5,0.1,0.4,0.5C147.2,107.8,139.5,106.2,131.3,105.8z M119.7,106.6
				c0.9-0.3,2.1-0.2,3.2-0.3C122.2,106.8,120.8,106.6,119.7,106.6z M120.2,106.9c-1.1,0.5-2.2,0.3-3.5,0.5
				C118,107,118.8,106.9,120.2,106.9z M127.1,106.8c1.9-0.1,3.6-0.5,5.5,0.3c-3.6-0.1-6.2,0.5-9.8,0
				C124,106.4,125.6,106.9,127.1,106.8z M125.6,106.1c0.9,0.4,1.8-0.1,2.8,0.1C127.8,106.4,126.1,106.7,125.6,106.1z M131.6,106.2
				c0.6-0.1,1.6-0.1,2.1,0.1C133.4,106.5,132.2,106.4,131.6,106.2z M146.2,104.7c0.3,0.4,0.8,1,1.8,1.1c-2.1-0.1-4.1-1.3-6.4-1.6
				C142.9,104.3,145.1,104.5,146.2,104.7z M144,104c0.2,0.2,0.2-0.1,0.4,0.2C145.6,104.2,143.8,104.5,144,104z M152.2,109
				c-1.4-0.4-2.8-1.1-4.4-1.7c-1.8-0.6-4-0.8-5.2-1.6C145.9,106.7,149.7,107.3,152.2,109z M146.9,106.4c-0.4,0.3-0.9-0.2-1.5-0.1
				C145.4,106,146.6,106.3,146.9,106.4z M147,106.1c-2.2,0-3.8-0.7-6.1-0.9C142.6,104.9,145.1,105.8,147,106.1z M153.9,110.4
				c-1.6-0.5-3.6-1.5-5.2-2.3C150.7,108.6,152.2,109.4,153.9,110.4z M150.6,104.9c-0.8,0.1-2-0.5-2.9-0.6
				C148.7,104.3,149.7,104.7,150.6,104.9z M147.3,104c-2,0.1-4.6-0.6-6.8-0.8c-0.7-0.1-1.8,0.3-2.1-0.3
				C141.9,103.2,143.8,103.4,147.3,104z M142.3,103.7c-2.3,0.2-5.2-0.3-7.8-0.2C136.6,102.9,140.1,103.5,142.3,103.7z M129.2,104.7
				c-0.4,0-0.4-0.2,0-0.1c1.1,0,2.5,0,3.2,0.2C131.4,105,130.5,104.9,129.2,104.7z M130.6,103.7c0.3,0,0.7,0.1,1,0.1
				c-0.1,0.3-0.6,0-0.8,0c-0.2,0-0.3,0-0.3,0.1c-0.6-0.2-0.8-0.1-1.5-0.1C129,103.6,130,103.6,130.6,103.7z M128.2,102.8
				c-0.2,0.2-0.5,0.1-0.8,0.2C127.3,102.5,127.9,102.8,128.2,102.8z M129.5,103.2c-1.5,0.3-3.3,0.4-5,0.5
				C126.1,103.3,127.9,103.4,129.5,103.2z M130.3,104c0.1,0,0.2,0,0.2,0c-1.4,0.4-4.2,0.2-6.2,0.4
				C125.9,103.9,128.7,104.1,130.3,104z M124.8,105c-0.6,0.3-1.5,0.2-2.3,0.2C123,104.9,124,105.1,124.8,105z M122.5,103.7
				c-1.2,0-2.2,0.3-3.3,0.3C119.9,103.7,121.8,103.4,122.5,103.7z M116.1,106c-0.5,0.3-1.3,0.3-2,0.4
				C114.6,106.1,115.4,106.1,116.1,106z M113.6,106.5c-0.2,0.2-0.7,0.3-0.9,0C113,106.2,113.2,106.5,113.6,106.5z M105.6,111.8
				c0.3,0.7-0.1,1.6-0.4,2C105,113.3,105.5,112.5,105.6,111.8z M104.9,106.3c0.1,0.3-0.2,0.2-0.3,0.4c-0.2-0.1-0.3-0.4-0.3-0.7
				C104.7,106,104.7,106.2,104.9,106.3z M104.5,111.6c0.4,1-0.4,2.4-0.8,3.5C103.4,114.2,104.3,112.7,104.5,111.6z M103.3,115.5
				c0.5,0,0.1,0.8-0.2,0.7C103.1,115.8,103.3,115.8,103.3,115.5z M93.4,126.4c0.3-0.4,1.2-0.3,1.5-0.7
				C95,126.1,93.9,126.3,93.4,126.4z M94.4,127.7c-0.4,0.5-2.3,0.5-2.8,0.1C92.5,128.1,93.4,127.5,94.4,127.7z M94.5,125.5
				c1.9-1.6,3.2-2.5,4.7-4.4C98.5,123.6,96.7,124.7,94.5,125.5z M96.1,126.2c-0.1,0.3-0.6,1.7-1.3,1.3
				C95.1,126.9,95.7,126.7,96.1,126.2z M95.4,125.7c0.3-0.5,1-0.6,1.4-1C96.9,125.2,95.9,125.5,95.4,125.7z M97.3,125.5
				c0.1,0.1-0.4,0.7-0.8,0.7C96.6,125.9,97,125.7,97.3,125.5z M97.2,124.9c2-2.4,4.4-4.3,5.9-7.1C102.1,120.3,99.9,123.7,97.2,124.9
				z M99.8,121c0.7-2,2.3-4.1,3.2-6.2C102.9,117.5,101,119.2,99.8,121z M102,118.7c-0.5,1-1.2,1.8-1.8,2.6c0.2-0.7,0.9-1.6,1.5-2.3
				C101.8,118.9,101.6,118.5,102,118.7z M103.3,111.1c0.2-0.1-0.1,0.5,0,0.8C102.9,111.8,103.2,111.3,103.3,111.1z M102.9,105.6
				c0.4,0.3,0.6,0.8,0.6,1.4C103.1,106.8,102.8,106.4,102.9,105.6z M102.9,112.7c-0.3,0.4-0.1,1.6-0.8,1.8
				C102.2,113.8,102.2,112.9,102.9,112.7z M98.7,120.5c-0.2-0.2,0-0.4,0.1-0.7c1.4-1.2,2.3-2.9,3.2-4.6c0.2,0,0.2,0.1,0.2,0.2
				c-1.6,3.2-3.4,6.1-6,8.2c-0.6-0.3-1.1,0.9-2.1,0.8C95.8,123.4,97.3,121.9,98.7,120.5z M94.3,124.9c-0.3,0.5-1,0.5-1.5,0.7
				C92.9,125.3,93.8,125,94.3,124.9z M92.2,126.5c-0.5,0.6-1.7,0.6-2.7,0.3C90.1,126.5,91.4,126.8,92.2,126.5z M87.4,129
				c0.4,0.3,0.7,0.7,1.1,1C87.9,130.3,87.4,129.5,87.4,129z M89.1,128.7c0.4-0.1,0.2,0.3,0.5,0.3C89.6,129.3,88.9,129.1,89.1,128.7z
				 M89.6,130c0.2-0.2,0.7,0.2,1.1,0.2C90.5,130.5,89.8,130.1,89.6,130z M89.8,127.8c1,0,2,0.9,3.3,0.5
				C92.1,129.1,90.4,128.9,89.8,127.8z M92.1,129.3c-0.3-0.4,0.8-0.4,1-0.1C93,129.5,92.2,129,92.1,129.3z M93.7,130.5
				c0.2-0.4,0.6-0.5,1.2-0.5C94.5,130.2,94.2,130.4,93.7,130.5z M94.6,129.4c0.2-0.2,0.6-0.2,0.7-0.5c-0.3,0.1-1.2,0.4-2,0.4
				c0.6-0.6,1.9-0.8,2.6-0.8c0.1-0.3,0-0.4-0.2-0.5c1.6-0.6,3.1-1.3,4.5-2.1C99.1,127.4,96.9,128.8,94.6,129.4z M95.7,131.3
				c0.6-0.4,1.3-0.7,2-1C97.3,130.9,96.5,131.1,95.7,131.3z M98,129.1c0.3-0.3,0.4-0.4,0.3-0.9c1.6-1.5,3.8-2.7,4.8-4.8
				c0.2,0.2,0.3,0.4,0.3,0.8c0.4-0.1,0.5-0.4,0.7-0.6C102.7,125.8,100.5,128,98,129.1z M101.7,124.8c-0.2,0,0-0.3-0.2-0.4
				c-0.2,0.2-0.2,0.5-0.3,0.8c-0.3,0-0.1-0.2-0.3-0.3c-1.1,1.2-2.7,1.6-4.1,2.4c0.1-0.7,1.3-1.1,1.8-1.7c0.3,0.1-0.2,0.3-0.1,0.6
				c2.4-1.3,3.7-4,5.6-5.9c0.3-0.5,0.3-1.3,1-1.3C104.2,121.2,102.9,122.9,101.7,124.8z M99,125.5c0.8-1.2,1.9-2,2.8-3.1
				C101.5,123.2,99.9,125.2,99,125.5z M100.9,123.1c0,0-0.1,0-0.1,0c0.3-1.4,2.8-2.7,3.1-4.9c-0.3-0.4-0.2,0.7-0.6,0.5
				c0.4-1.2,1.1-3.7,2.2-4C104.6,118.3,102.9,120.8,100.9,123.1z M105.2,118.7c-0.3-0.3,0.3-0.6,0.3-1
				C105.8,117.9,105.3,118.4,105.2,118.7z M105.7,117.1c-0.1-0.7,0.5-1.5,0.5-2.1C106.8,115.6,106,116.7,105.7,117.1z M106.6,114.6
				c0.3-0.4,0.1-1,0.4-1.6C107.2,113.4,107,114.4,106.6,114.6z M112.2,107.5c-0.8,0.5-1.8,0.8-3,0.8
				C109.9,107.8,111.1,107.7,112.2,107.5z M109.3,109c0.7-0.7,2.1-0.6,3.2-0.7C111.5,108.6,110.5,109,109.3,109z M114.8,107.4
				c-0.7,0.2-1.3,0.4-2.2,0.4C113.1,107.4,114,107.4,114.8,107.4z M114.1,108.5c1.3-0.4,3.4-1.2,4.9-0.6c2-0.6,5.1-0.6,7.2-0.3
				C122.3,108.3,117.7,107.7,114.1,108.5z M135.1,107.8c-0.3-0.1-0.3,0.2-0.6,0.1c-0.4-0.1-0.2,0.4-0.5,0.3c-1.8-0.3-4.4-0.7-6-0.5
				c0-0.5,0.6-0.1,0.9-0.1c1.5-0.1,3.9-0.1,6.4,0.2C135.9,107.7,135.4,107.9,135.1,107.8z M132.5,106.7c0.8,0,2.2,0.4,3.2,0.5
				C134.7,107.5,132.9,106.9,132.5,106.7z M136,108.5c1.2-0.2,1.6,0.2,3.1,0.4C138.2,109.1,137,108.6,136,108.5z M144.1,109.7
				c-2.4-0.3-4.2-1.4-7-1.6c1.7-0.5,3.8,0.9,5.3,0.8c0.3,0.2,1.1,0.9,1.9,0.6C144.1,109.6,144,109.7,144.1,109.7c0.1,0,0.2,0,0.3,0
				C144.2,109.7,144.1,109.7,144.1,109.7z M143.9,109.4C142.9,109.4,142.7,108.8,143.9,109.4L143.9,109.4z M135.7,107.1
				c3.1,0.1,6.2,0.8,8.8,1.7C141.8,108.4,138.7,107.5,135.7,107.1z M147.5,111.3c0.9-0.1,2.2,1.2,3.5,1.5
				C149.8,112.8,148.3,111.6,147.5,111.3z M152,112.4c-2.2-0.7-4.6-2.1-6.9-2.9c3.2,0.6,7.2,1.8,9.5,4.1c-1.7-0.2-2.7-1.9-4.5-2.4
				C150.6,111.7,151.5,111.9,152,112.4z M150.7,109.4c1.3,0.3,3.4,1.7,4.6,2.8C153.5,111.5,152.3,110.2,150.7,109.4z M153,108.2
				c0.5-0.3,1.4,0.6,1.8,0.1c0.8,0.1,0.4,0.7,0.7,1.1C154.8,109.3,153.8,108.5,153,108.2z M156,114.1c0.6,0.4,0.9,0.9,1.2,1.5
				C157.2,115.6,155.9,114.9,156,114.1z M157.9,112.3c0.4-0.4,0.5,0.3,0.8,0.4C158.4,113,158.1,112.4,157.9,112.3z"/>
		</g>
		<g>
			<path class="st0" d="M185.6,57.8c1,0.6,0.9,2.5,0.8,3.1c-0.2,2.5-0.8,4.5-1.9,6.3c-1.9,3.1-5.4,5.6-7.9,6.9c0.1,0,0.3,0,0.3,0.2
				c-1.3-0.2-1.8,0.6-3,0.1c-1.3-0.6-0.5-2.6,0-3.8c0.7-1.4,2.9-4.1,3.9-4.8c0.7-0.6,2.4-0.9,2.6-1.5c0.1-0.3-0.5-1.3-0.8-1.6
				c-1.3-1-4.1-0.9-5.7-1.2c1.8-2.2,3.6-6.2,1.9-9.1c-0.9-0.9-2.3-1.5-4.3-1.6c-2.9,0.9-6.3,3.1-6.6,6.7c-0.2,2.6,2.5,4.8,4.9,5.6
				c-1.6,1.7-3.6,3.5-6.1,3.7c-1.4-1,0-4.2,1.9-3.5c1-4-4-4.1-5.7-2.1c-1.9,2.2-4.9,6.7-6.9,4c0.5-2.1,1.3-3,2.1-4.4
				c0,0.1,0,0.3,0.2,0.3c0.9-1.6,2.7-2,4.3-2.7c0.1-1.2-0.6-1.9-1.6-2.3c0.1-0.4,0.5-0.6,0.5-1.1c-0.4-2-1.4-3.1-4-3.3
				c-5.6-0.4-10,3.8-10.7,4.3c-2.6,1.9-8.4,7.8-9.1,7.4c3.3-4.4,2.1-10-2.7-8.8c-1.7,0.4-3.8,2.1-5.3,3.5c-1.8,1.7-3.2,3.6-4.3,4.7
				c0.4-0.6,0.6-1.3,1-2.1c0.9-1.6,2.7-3.3,2.7-5.4c0-2.4-3.2-4.1-5.6-2.6c1.4,2.4-1.1,6.4-2.4,8.8c-0.6,1.1-1.2,2.3-1.8,3.3
				c-0.9,1.5-2,2.7-2.8,4.2c-2.2,4.5-6.8,8.8-3.7,13.9c1.1,1,2.2,1.5,3.6,1.2c0.3-0.2,0.2-1,0.4-1.8c0.3-1.5,1.4-4.4,0.6-2.8
				c0,0.1,0,0.1-0.1,0.1c0.3-1.1,0.7-2.1,1.3-2.8c0.1,0.3-0.4,0.5-0.1,0.7c1.6-2.4,2-5.4,3.8-7.2c0.8-1.3,1.5-2.8,2.6-3.7
				c0,2.3,1.5,3.6,4.1,3.7c1.8,0,3.1-1.1,4.9-2.1c1.4-0.8,3-1.9,3.9-2.6c1.9-1.4,3.7-3.3,5-4.2c-0.9,1.5-2.1,2.9-2.1,5.1
				c0.1,2.6,3.1,3.5,4.9,2.8c2.1-0.8,4-2.4,5.8-4.1c-2.5,6.2,3.7,6.9,6.9,4.1c0.8-0.7,1.5-1.6,2.1-2.7c0,0.4,0,1.5,0.1,1.9
				c0.6,1.3,1.7,2.1,3.5,2.3c5.4,0.7,9.2-4.6,11.9-7.5c0.1,0.3,0.7,0.1,0.8,0.3c-1.4,2.1-3,3.9-3.4,6.3c-0.5,3.4,1.8,6.7,4.6,7.5
				c3.2,1,7.2-0.3,9.2-1.4c3.4-2,7.2-7.7,8.1-12.4C193,59.4,189.4,56,185.6,57.8z M166.3,58.6c0-0.3,0.1-0.5,0.1-0.8
				c0.3,0.1,0,0.5,0.4,0.5C166.7,58.4,166.6,58.6,166.3,58.6z M135.3,57.8c-0.1,0.3-0.1,0.8-0.4,0.7c0.1-0.1,0.4-0.7,0-0.7
				C134.8,57.8,135.1,57.8,135.3,57.8z M125.2,55.7c0.4,0-0.1,0.6-0.1,0.9C124.6,56.4,125.1,56,125.2,55.7z M121.2,58.6
				c0.1,0,0.2,0,0.3,0c-0.3,0.8-0.8,1.4-1.1,2.3c-0.4-0.2,0.1-0.4-0.4-0.5C120.5,59.9,121,59.4,121.2,58.6z M120.2,61
				c-0.1,0.8-0.8,1.8-1.5,2.3C118.7,62.4,119.8,61.8,120.2,61z M119.7,64.6c-0.6,0.1-0.8,0.8-1.2,1.2c0.2-0.7,0.9-1.8,1.5-2.3
				C120.3,63.8,119.1,64.4,119.7,64.6z M118.2,62.5c0.4,0.2-0.4,0.8-0.5,1.2C117.5,63.3,118.1,62.9,118.2,62.5z M118.8,63.6
				c0,0.8-1,1.9-1.6,2.8c-1,1.6-2.2,3.3-3.1,4.9c0.4-1.8,1.7-3.6,2.5-5.3C117.8,65.8,117.9,63.6,118.8,63.6z M117.6,66.2
				c0.3-0.2,0.4-0.7,0.7-0.9C118.4,65.5,117.9,66.1,117.6,66.2z M109,78.6c0.2-1.6,0.8-2.7,1.3-3.8C110.2,75.9,109.6,77.6,109,78.6z
				 M112.1,78c-0.3-0.4,0.2-0.9,0.3-1.3C112.6,77,112.1,77.5,112.1,78z M113,74.1c0.4,0.3-0.4,1-0.5,1.4
				C112.3,75.2,112.8,74.5,113,74.1z M112.6,76.6c-0.3-0.4,0.4-1.3,0.6-1.9C113.4,75.3,112.7,75.9,112.6,76.6z M112.9,72.2
				c-0.4-0.2-0.7,0.8-0.7,0.2c0.9-1.4,1.6-3,2.5-4.3c0.1-0.2-0.2-0.2-0.2-0.4c0.8-1,1.5-2.2,2.5-2.9C115.6,67.4,114,69.5,112.9,72.2
				z M114.1,75.1c-0.2-0.4,0.4-0.8,0.4-1.3C114.9,74,114.1,74.7,114.1,75.1z M113.8,73.3c0.7-2.2,2.3-4.5,3.4-6.6
				c0.3,0,0.1,0.2,0.3,0.3c0.4,0,0.4-0.5,0.7-0.6c0.2-0.2-0.2,0.7-0.4,1C116.7,69.2,114.9,71.5,113.8,73.3z M116.2,71.5
				c0.7-2.4,2.6-4.4,4.1-6.2C119.2,67.3,117.5,69.5,116.2,71.5z M119.9,64.5c-0.1-0.2,0.4-0.7,0.6-1
				C120.7,63.5,120.2,64.5,119.9,64.5z M121.1,63.7c-0.3-0.3,0.4-0.5,0.3-0.9C121.8,63.1,121.1,63.3,121.1,63.7z M120.9,62
				c0.2-0.1,0.5-0.1,0.6-0.4c0.2,0.2-0.3,0.6-0.4,1C121,62.4,120.9,62.3,120.9,62z M120.5,61.6c0.4-0.7,0.8-1.4,1.2-2.1
				C121.7,60.2,121,61.2,120.5,61.6z M121.7,57.5c0.1-0.8,0.5-1.2,0.9-2.2c0.2,0.5-0.2,1.1-0.4,1.4C122,57,121.7,57.9,121.7,57.5z
				 M124.7,61.8c0.1,0.3-0.6,0.6-0.7,1.1C123.8,62.5,124.5,62.2,124.7,61.8z M125,66.4c0.4-0.4,1.2-0.5,1.6-0.9
				C127,65.9,125.7,66.4,125,66.4z M128.8,68.3c0-0.1-0.1-0.1-0.2-0.1c0.2-0.3,0.6-0.4,1-0.6C129.4,67.9,129.2,68.3,128.8,68.3z
				 M128.4,67.2c0.3-0.4,0.8-1.2,1.4-0.9C129.4,66.7,128.9,67.5,128.4,67.2z M127,66.8c0.8-0.3,1.2-2.6,2.1-1.4
				C128.5,65.8,128,66.6,127,66.8z M129,63.1c0.3-0.2,0.4-0.7,0.9-0.7C129.7,62.8,129.4,63,129,63.1z M125.8,65.4
				c-0.7,0.4-1.9,0.7-2.8,0.1c-0.2-1,0.7-1.8,1.4-2.5c1.9-2,3.9-4.1,6.3-5.2c0.2-0.1,0.4-0.3,0.9-0.1c0,1.3-0.8,2.6-1.6,3.7
				C128.9,62.9,127.4,64.6,125.8,65.4z M130.4,64.8c-0.1-0.6,0.9-1.1,1.2-1.6C131.9,63.6,130.8,64.4,130.4,64.8z M130.9,66.5
				c0.2-0.5,0.7-0.6,0.9-1C131.9,65.8,131.4,66.4,130.9,66.5z M130.1,66.2c0.1-1.4,1.8-1.7,2.4-2.8
				C132.3,64.6,131.1,65.7,130.1,66.2z M154.7,54.5c-0.2,0.4-1,0.2-1.3,0.4C153.7,54.6,154.1,54.4,154.7,54.5z M149.5,57.4
				c-0.3,0.5-0.9,0.7-1.4,1C148,58.4,148.8,57.4,149.5,57.4z M145.5,59.2c0.8-1,1.8-1.8,2.9-2.3C147.6,57.9,146.6,58.6,145.5,59.2z
				 M146.5,57.7c0-0.5,0.8-1,1-1.6c0.2,0,0.2,0.2,0.2,0.4c1.8-0.8,3-2.4,5.3-2.5C150.7,55,148.6,56.4,146.5,57.7z M149.2,54
				c-1.1,0.9-2.5,1.5-3.6,2.5C146.3,55.4,147.9,54.5,149.2,54z M146.7,56.6c0.2,0,0.2,0.1,0.2,0.3c-0.6,0.4-0.8,1.4-1.7,1.4
				C145.1,57.4,146.3,57.2,146.7,56.6z M140,62.6c0.6-2.4,2.4-4.4,4.2-5.8c0.4,0.4-0.9,0.9-0.8,1.7C142.2,59.8,141.1,61.2,140,62.6z
				 M144.3,58.4c-0.4,1.1-1.9,2-2.4,3.4C142.1,60.4,143.5,59.4,144.3,58.4z M141.4,64.1c0.4-1.8,2-3.1,2.9-4.6
				c0.2,0,0.2,0.1,0.1,0.1C143.6,61.3,142.4,62.5,141.4,64.1z M143.3,63.3c0-1.2,1.2-2,2-2.7C144.9,61.4,144.1,62.6,143.3,63.3z
				 M149.5,66.4c0.3,0.4,0.3,1,0.5,1.6C149.6,67.6,149.4,67.1,149.5,66.4z M152.1,61.6c0.2,0.3-0.5,0.6-0.5,1.1
				C151.4,62.3,152,61.9,152.1,61.6z M152.2,66.7c-0.4,0-0.3-0.2-0.5-0.3c0-0.2,0.2-0.2,0.2-0.4C152.1,66.1,152.5,66.5,152.2,66.7z
				 M151.9,64.8c-0.2-0.1,0-0.1,0.1-0.1c0.1-0.2-0.1-0.2-0.2-0.3c0.1-0.1,0.3-0.2,0.5-0.2C152.4,64.7,152.2,64.8,151.9,64.8z
				 M151.6,61.3c0.1-0.7,0.6-0.9,1-1.3C152.5,60.3,152,61.1,151.6,61.3z M144,64.9c-0.5-1,0.5-2.1,1.1-3c1.6-2.2,4.8-4.7,7.2-5.7
				c0.8-0.3,1.9-0.6,2.7-0.3c-0.4,1-1.6,1.3-2.3,2C150,60.4,145.8,66.1,144,64.9z M152.7,65.7c0.3,0.1,0.6,0.2,0.6,0.5
				C153,66.2,152.6,66.1,152.7,65.7z M153.9,69.4c-0.1-0.2,0.5-0.4,0.8-0.5C154.7,69.4,154.1,69.2,153.9,69.4z M159.7,67
				c-0.6,0-0.2-1.1,0-1.4C159.9,65.9,159.5,66.7,159.7,67z M159.7,65c0-0.5,0.2-0.8,0.4-1C160.2,64.2,160,65.1,159.7,65z M161,63.1
				c0.4,0.5-0.5,1.2-0.5,1.9C160.2,64.7,160.6,63.4,161,63.1z M161.1,66.9c-0.5-0.3-0.3-0.9-0.1-1.5
				C161.1,65.8,161.5,66.5,161.1,66.9z M161.7,68.4c-0.1,0-0.2,0-0.3,0c0-0.2,0.1-0.3,0.2-0.4C161.7,68,161.7,68.1,161.7,68.4z
				 M162.3,68c0.4,0,0.3,0.2,0.7,0.2C162.8,68.5,162.1,68.6,162.3,68z M162.3,66.9c0.3,0.1,0.4,0.2,0.6,0.3
				C162.9,67.4,162,67.3,162.3,66.9z M170.9,71.4c-0.4-0.1-0.1-0.7-0.1-1C171.2,70.4,170.9,71,170.9,71.4z M175.5,64.5
				c0.2,0.5-1.1,1.3-1.5,1.9C174,65.6,175.1,65.1,175.5,64.5z M167.2,57.9c-0.4-1.8,1.1-3.3,1.7-4.5c-0.1,0.8-1.1,1.9-1.5,3.3
				C167.4,57.1,167.6,57.5,167.2,57.9z M168,53.7c-0.1,0.3-0.5,1.3-1,1.5C167.3,54.6,167.6,54.1,168,53.7z M167.2,59.6
				c-0.3-0.1-0.2-0.5-0.2-0.7c0.3,0,0.3-0.4,0.6-0.3C167.3,58.8,167.2,59.1,167.2,59.6z M168.8,56.2c0.8-0.9,1.6-1.8,2.7-2.3
				c0,0.7-0.5,0.7-0.9,0.9C170.1,55.3,169.1,56.4,168.8,56.2z M171.3,55.2c-0.2,0.7-0.9,0.7-1.1,1.3c-0.1-0.1-0.3-0.5-0.4-0.2
				C169.9,56,170.5,55.2,171.3,55.2z M170.2,63.3c0.3,0.3-0.4,0.5-0.4,0.7C169.5,63.8,170.2,63.7,170.2,63.3z M164.6,67.3
				c0.3,0.1,0.4-0.1,0.7,0C165.2,67.5,164.5,67.9,164.6,67.3z M167.8,65.4c-0.3,0.2-0.5,0.6-0.9,0.6
				C167.2,65.8,167.4,65.4,167.8,65.4z M167.2,67.4c1.1-1,2.2-2,3.2-3.1C169.7,65.3,168.6,66.8,167.2,67.4z M170.1,61
				c0.3,0.2,0.5,0.3,1,0.4C170.9,61.6,170,61.4,170.1,61z M173.2,58.6c-0.2,0.6-1.2,2.4-1.6,2.5c-0.3,0.1-1.8-0.4-2.2-0.9
				c-1.6-1.8,2.3-6.1,4.6-4.9C174,56.4,173.7,57.6,173.2,58.6z M174.4,67c0.5,0.5-0.5,1.4-1,1.6C173.7,68,174.1,67.5,174.4,67z
				 M172.7,68.4c0.1-0.6,0.5-0.9,0.8-1.4C173.7,67.1,173.1,68.3,172.7,68.4z M173.7,68.6c0.3,0.6-0.5,1.1-0.7,1.5
				C172.9,69.6,173.5,69.1,173.7,68.6z M189.9,60.3c0.4,0.3,0.1,0.6,0.1,1.2C189.8,61.2,189.8,60.8,189.9,60.3z M188.9,62.4
				c0.5,0.9-0.3,2.2-0.5,3C188.2,64.9,189,63.5,188.9,62.4z M188.3,67.1c-0.9,2.3-2.2,4.5-4.1,5.9C184.7,71.1,187.1,68.9,188.3,67.1
				z M184.7,70.8c0-0.7,0.8-1.5,1.5-1.8C185.8,69.7,185.4,70.4,184.7,70.8z M187,62.3c0.2,0.5-0.2,1.3-0.3,1.7
				c-0.4-0.1,0.5-0.7-0.1-0.7C186.8,63.1,186.9,62.8,187,62.3z M187.7,65.1c0.1,1-0.9,2.9-1.7,3.6C186.6,67.6,187.1,66.4,187.7,65.1
				z M186.1,66.4c0.4,0.3-0.5,1.2-0.7,1.6C185.1,67.3,186,67,186.1,66.4z M185.1,68.1c0.4,0.1-0.1,1.1-0.6,0.8
				C184.5,68.4,185,68.5,185.1,68.1z M184,69.2c0.4,0,0.3,0.2,0.5,0.3c-0.4,0.9-1.1,1.2-1.6,1.9c-0.2,0-0.2-0.2-0.4-0.2
				c-0.5,0.8-1.5,1.2-2.4,1.5C181.3,71.2,183.2,71.2,184,69.2z M184,70.7c0.1,0.6-0.8,1.1-1.1,1.7C182.7,71.6,183.8,71.4,184,70.7z
				 M177.4,76.7c0.2-0.2,0.5-0.2,0.9-0.1C178.1,76.8,177.8,76.8,177.4,76.7z M176.5,75.9c0.4-0.4,1.3-0.2,1.9-0.3
				C178,76,177.4,76.1,176.5,75.9z M181.7,72.3c-0.5,1.2-2,1.1-3.1,1.7C179.7,73.5,180.7,72.8,181.7,72.3z M178.8,74.8
				c1.3-0.6,2.6-1.1,3.7-1.9c0.2,0.5-0.7,0.7-0.9,1c1.2-0.1,1.9-2,2.8-3c0.1,0.1,0.3,0.2,0.3,0c0.1,0.3-0.4,1.2-0.8,0.8
				c-0.1,0.6-0.5,1.6-1.4,1.7C181.9,74.8,180.4,74.9,178.8,74.8z M183.7,74c0.5,0.7-0.5,1.2-1.2,1.3C182.5,74.9,183.3,74.3,183.7,74
				z M183.5,75.7c0.7-0.5,1.4-1,2-1.6C185.2,74.6,184.4,75.5,183.5,75.7z M184.4,74.1c0.9-1.9,3.2-3,4.1-5.2c0.2,0,0.4,0.1,0.6,0.1
				C187.9,70.7,186.2,72.7,184.4,74.1z M189.2,65.7c0.1-0.6,0.4-2,0.7-2.8C190,63.8,190,65.2,189.2,65.7z M189.5,68.3
				c0.2-1,1-2.4,1.2-3.8C191.4,65.8,189.9,67.3,189.5,68.3z"/>
			<path class="st0" d="M113.1,66c0.7-1.2,0.9-2.2,1.2-3.3c0.9-3,0.5-5.5-0.4-7.2c-1.6-3.1-5.3-4.3-8.7-6c2.5,0.1,4.4-0.3,6.5-0.4
				c1.2-0.1,2.5,0,3.7-0.1c0.9-0.1,1.9-0.4,2.8-0.5c3.2-0.5,5.8-0.9,8.7-1.5c3.9-0.7,7.9-0.9,12-1.2c3.3-0.2,6.9-0.2,10.2,0.1
				c3.9,0.3,7.8,1.9,10.3,3.3c1.3,1.2,2.8,2.4,3.1,4.3c1.8-0.3,3-3,2.9-5c-0.1-1.2-0.9-2.7-1.5-3.5c-0.8-1.1-3-3.2-4.1-3.9
				c-2.1-1.3-6.2-2.1-9-2.2c-6.6-0.4-12.5,0.2-18.2,1c-4.3,0.6-8.3,1.7-11.5,1.9c0.8-0.2,1.8-0.3,2.5-0.6c-3.6,0.7-7.6,1.1-11.6,1.9
				c-2.8,0.5-6.4,0.8-8.8,0.8c-1.1,0-2.1,0.2-3,0.2c-1.4-0.1-2.6-0.8-3.6-1.2c-1.3,2-1.2,4.3-0.1,5.9c1.7,2.3,5.9,2.4,8.6,3.5
				c0.5,0.1-0.1-0.4,0.5-0.2c0.9,0.8,2.2,0.9,3.2,1.7c1,0.8,1.9,2.7,2.2,4c0.6,2.5-1.3,6-2.4,7.5c-1.4,1.9-3.2,4.3-5.1,4.7
				c-0.9-1.1-0.1-2.6,0.4-3.6c0.5-1.1,1.1-2.4,1.7-3.3c1.2-2.1,3.3-3.4,4.6-5c-0.8-1.5-3.1-1.8-4.3-1.6c-2.8,0.5-4.5,4.1-7.7,4
				c0.2-3.5-4.6-6.6-7.3-3.7c-3-2.3-6.3,0.5-8.3,1.8c-1.3,0.8-2.5,1.5-3.7,1.8c0.7-3.3,1.6-5,1.4-7.1c-0.1-0.5-0.4-1-0.5-1.7
				c0-0.4,0.1-1,0.1-1.5c-0.1-1.1-0.9-2.5-1.4-3.3c-1.4-1.9-3.8-3.7-6.2-4.6c-0.7-0.3-1.5-0.2-2.2-0.5c-1.6-0.6-3-1.5-4.9-1.9
				c-1.7-0.4-3.5-0.7-5.3-0.7c-3.2-0.1-5.9,0.7-8.2,1.3c-0.7,0.2-1.4,0-2,0.2c-0.4,0.1-0.9,0.6-1.4,0.9c-1.7,0.8-3.6,1.8-4.8,2.9
				c-1.7,1.6-3.2,3.1-4.4,5.2c-0.8,1.3-1.7,3-2.1,4.3c-0.8,3.3,0,5.5,1.1,7.4c0.3,0.5,0.6,1.3,0.9,1.6c0.2,0.2,0.9,0.4,1,0.5
				c0.2,0.2,1.2,1,2,0.8c0.4-0.1-0.5-0.2,0.1-0.2c1.8,0.7,3.4,0,4.6-0.5c-1.1,1.7-2.3,3.1-3.3,4.8c-0.4,2.2,1.1,3.6,1.3,3.9
				c-0.4,0.2-0.6,0-0.9-0.2L43,71.5l-1.7-1.6L39,68.6c-1.4-0.4-2.4-1.3-3.7-1.4c-2.7-0.2-4.7,1.6-5.1,4.6c3.1-0.1,6.6,1.4,8.1,2.3
				c0.6,0.4,2.5,1.4,3,1.7c2.5,1.5,6.6,2.9,10.1,2.5c0.5,0,1-0.3,1.4-0.4c0.9-0.1,1.7,0.1,2.5,0c5.6-0.8,9.5-3.1,13.7-5.9
				c3.2-2.2,5-5.8,8.2-8.6c0-0.4-0.3-0.2,0-0.6c1.3-0.2,2.3-0.7,3.6-1c-0.4,1.3-2.4,0.5-3.4,1.5c1-0.1,2-0.7,2.9-0.4
				c-1.5,2.6-2.2,7-0.2,8.9c0.4,0.4,0.9,0.4,1.4,0.8c0.5,0.4,0.8,0.9,1.2,1.2c2.4,1.5,5.3,0.5,7.2-0.6c1.6-1,3.1-2.8,4.5-4.5
				c1.5-1.8,2.8-4,3.3-6.1c1-0.4,2.3-1.2,3.2-1.4c-1.5,2.2-3,5.2-2.3,8.1c0.6,2.6,4.1,4.4,7,3.4C108.7,71.6,111.3,68.8,113.1,66z
				 M109.7,48c-0.8,0,0.3-0.3,0.9-0.2C110.3,48,109.8,48,109.7,48z M117.8,47c-0.8,0.3-2,0.7-2.8,0.5
				C115.9,47.3,116.9,47.2,117.8,47z M117.3,46.7c1.1-0.4,2.5-0.4,3.9-0.5C120,46.5,118.8,46.8,117.3,46.7z M115.1,48.4
				c1.4-0.6,3.2-0.6,4.8-0.8C118.4,47.9,117.1,48.5,115.1,48.4z M120.4,47.8c1.8-0.6,3.8-0.8,5.9-1.1
				C124.5,47.4,122.3,47.5,120.4,47.8z M126.4,46.9c0.9-0.7,2.1-0.4,3.3-0.6C128.7,46.6,127.4,46.5,126.4,46.9z M130,46.3
				c0.4-0.3,1-0.2,1.5-0.3C131.2,46.4,130.5,46.3,130,46.3z M122.1,46.2c-0.2-0.3-0.3-0.3-0.7-0.4c3.6-0.6,7.2-1.1,11.4-0.9
				C129.1,45.3,125.7,45.6,122.1,46.2z M137.4,41.8c4.9-0.6,12.2-1.4,16.8,0.9C148.4,41.7,142.5,41.2,137.4,41.8z M153.7,43.4
				c-0.2,0.1-1.4,0.1-1.3-0.3C152.8,42.9,153.3,43.3,153.7,43.4z M137.7,43.9c2.6-0.7,6.6-0.7,9.8,0.2c0.3,0,0.3-0.3,0.5-0.4
				c2.4,0.4,4.6,0.9,6.7,1.6c-4-0.6-8.7-1.3-12.7-1.2c0.1-0.3,0.4-0.2,0.7-0.1C141.1,43.5,139.5,44.2,137.7,43.9z M141.2,44.3
				c-0.3,0.3-0.9,0.1-1.5,0C140,44,140.7,44.2,141.2,44.3z M133.2,42.7c4.6-0.9,9.9-0.9,15.6-0.3c-0.2,0.2-0.6,0.2-1,0.1
				c1,0.5,3.1-0.2,4.2,0.7C145.3,42.8,139,42.9,133.2,42.7z M144.1,41.9c-0.1-0.1,0.8-0.1,1,0C144.9,42.2,144.4,41.9,144.1,41.9z
				 M145.2,41.9c0-0.2,0.4,0,0.6,0c0.3-0.2,1,0.1,1.5,0.1C146.6,42.2,146.2,42,145.2,41.9z M142,41c-1.9,0.2-3.7,0.5-5.9,0.2
				c1.9-0.4,3.9-0.8,6-0.9C141.9,40.5,141.4,40.9,142,41z M132.2,41.7c-0.4,0,0,0.4-0.3,0.4c-0.3,0.2-0.8,0-1-0.1
				c0.2-0.2,0.5-0.2,0.7-0.4c-0.1-0.2-0.4-0.3-0.8-0.3c-0.3-0.1,0,0.5-0.3,0.4c-2.3,0.8-5.4,0.7-8.1,1c4.7-1.9,11.2-1.6,16.8-2.5
				C137.4,41,134.4,41.2,132.2,41.7z M130.7,43.9c-1.3,0-2.5,0.2-4,0C127.8,43.8,129.8,43.5,130.7,43.9z M126.9,43.3
				c1-0.4,2.2-0.5,3.4-0.7C129.2,42.9,128.1,43.1,126.9,43.3z M132,42.4c-0.3,0.1-0.7,0.3-1.1,0.3C129.9,42.7,131.2,42.3,132,42.4z
				 M133.1,42.7c-0.4,0.2-1.1,0.1-1.6,0.1C131.9,42.6,132.5,42.6,133.1,42.7z M125.1,44.3c-1,0.3-2.4,0.3-3.7,0.2
				C122.5,44.3,123.8,44.3,125.1,44.3z M132,43.4c0.8-0.4,2.2-0.1,3.3-0.3C134.3,43.5,133.1,43.5,132,43.4z M134.3,45.5
				c0.4-0.2,1.1-0.1,1.6-0.1C135.4,45.6,134.7,45.7,134.3,45.5z M136.8,45.4c0.5-0.2,1.1-0.2,1.7-0.1
				C138.1,45.5,137.4,45.5,136.8,45.4z M138.7,45.3c3.2-0.6,5.8-0.5,9.8,0c0.2,0,0.5,0.1,0.7,0.1C145,45.2,142,45.1,138.7,45.3z
				 M145,44.5c3,0,8,0.5,10.5,2C152.5,45.4,148.6,44.8,145,44.5z M155.4,45c-2.5-0.9-5.7-1.3-8.5-1.9c2,0.2,4.8,0.4,7.3,1
				c0.1,0.5,0.6,0.7,1.3,0.9C155.7,45,155.5,45,155.4,45z M156.3,46.9c1,0.1,2.2,0.9,3,1.4C158.4,48.2,157.2,47.4,156.3,46.9z
				 M156.6,46.2c0.8,0.2,2,0.5,2.3,1.3C158.3,47,157.1,46.9,156.6,46.2z M157.1,45.3c-0.7-0.4-1.6-0.4-2-1.1
				c2.3,0.9,4.7,1.7,6.3,3.1C159.8,47.5,158.5,46.1,157.1,45.3z M157.7,45.1c0.9-0.2,1.5,0.7,2.3,0.9
				C159.2,46.1,158.6,45.2,157.7,45.1z M157.6,43.8c1.4,0.2,3,1.1,4,1.9C160.5,45.3,159,44.4,157.6,43.8z M160,43.9
				c-0.2,0.2-0.6-0.3-0.9-0.3C159.4,43.3,159.7,43.8,160,43.9z M157.7,43.2c0.3,0.1,1.3,0.6,0.7,0.4c-0.3-0.1-0.8-0.2-1.5-0.6
				C156.8,43,157.4,43.1,157.7,43.2z M154.3,42.5c0.3-0.2,0.9,0.2,1.1,0.4C155.1,43,154.7,42.5,154.3,42.5z M154.7,41.4
				c-0.8,0.2-2.1,0-3-0.2C152.3,40.6,153.9,41.2,154.7,41.4z M151.4,40.6c-0.1,0.3-0.2,0.4-0.2,0.8c-2.8-0.4-5.6-0.4-8.3-0.5
				C145.5,40.2,148,40.1,151.4,40.6z M148.6,39.2c-0.3,0.4-1.2-0.1-1.6,0.1C147.3,38.9,147.9,39.1,148.6,39.2z M146.6,39.1
				c-0.5,0.2-1.2,0.2-2,0.1C145.1,38.9,145.9,39.1,146.6,39.1z M146.3,39.7c-1.7,0.4-4,0.3-5.6,0.5
				C142.2,39.6,144.6,39.6,146.3,39.7z M140.1,39.3c0.4,0.2-0.5,0.4-0.6,0.7c-2.3-0.2-4,0.9-6,0.1C135.7,39.8,138.1,39.7,140.1,39.3
				z M133.7,40.4c-0.8,0.2-1.9,0.2-2.8,0.3C131.5,40.2,132.7,40.4,133.7,40.4z M122.9,42c0,0.2,0.1,0,0.2,0
				c-0.7,0.5-2.5,0.6-3.8,0.8c0.1,0.3,0.4,0,0.6,0.1c-0.6,0.4-1.3,0.1-2.1,0.3C119,42.2,121.3,42.6,122.9,42z M118,43.5
				c-0.9,0.3-1.8,0.5-2.8,0.5C115.5,43.1,117,43.7,118,43.5z M118.8,46.1c-1.3,0.3-3,0.7-4.3,0.6C115.9,46.5,117.1,46,118.8,46.1z
				 M114.3,48.3c-0.4,0.3-1.1,0.3-1.8,0.2C113.1,48.3,113.7,48.2,114.3,48.3z M113.5,44.1c-1.4,0.6-3.3,0.6-4.8,0.7
				C110,44.3,111.8,44.2,113.5,44.1z M111.6,47c-1.2,0.2-2.5,0.2-3.7,0.4C108.8,46.8,110.5,46.8,111.6,47z M109,48.1
				c-0.6,0.2-1.3,0.3-2.2,0.2C107.3,48,108.1,48,109,48.1z M107.2,44.1c0.2,0-1,0.3-1.5,0.1C106.1,44.1,106.5,43.9,107.2,44.1z
				 M102.1,51.1c0-0.5,0.9-0.2,0.9,0.1C102.7,51.2,102.4,51.2,102.1,51.1z M102,44.4c0.1-0.4,0.8,0.1,0.9-0.3c0.2,0.2,0.7,0.2,1,0.2
				C103.3,44.7,102.5,44.4,102,44.4z M105,46.2c-0.4,0-0.5-0.3-0.9-0.2C104.1,45.8,105.1,45.8,105,46.2z M104.1,47.2
				c0.5-0.2,1.4-0.2,2.2-0.3C106,47.1,105,47.4,104.1,47.2z M112.6,61.3c-0.2,0.3-0.3,0.9-0.5,1.2C112.1,62.2,111.9,61.1,112.6,61.3
				z M111.9,55.9c0.5,0,0.6,1.1,0.6,1.7C112,57.3,112.3,56.3,111.9,55.9z M112.3,65.2c0.1-0.5,0.4-0.6,0.5-1.1
				C113,64.5,112.8,65.4,112.3,65.2z M113.5,56.1c-0.7-0.7-1.4-1.4-1.8-2.3C112.5,54.5,113.1,55.2,113.5,56.1z M106.4,60.9
				c0.2,0.2-0.3,0.7-0.6,0.7C106,61.3,106.3,61.2,106.4,60.9z M36.2,69.4c0.1,0,1.2-1.4,1.2-0.3C37,69.3,36.5,69.3,36.2,69.4z
				 M43.2,73.4c-0.5,0.3-0.9-0.4-1.4-0.4C42.3,72.7,42.8,73.3,43.2,73.4z M42,74.6c0.9-0.1,1.7,0.8,2.6,1
				C43.7,75.8,42.9,74.9,42,74.6z M96.2,63.3c-0.3,0.6-0.5,1.3-1.1,1.6C95.6,64.2,95.4,63.5,96.2,63.3z M92.7,60.7
				c-0.7-0.2-1-0.6-1.2-1.1c0.1-0.3,0.3-0.5,0.4-0.7C92.7,59.1,92.7,60,92.7,60.7z M91.6,58.2c0.4,0.2-0.1,0.5-0.4,0.5
				C91.1,58.3,91.5,58.4,91.6,58.2z M90.9,59.2c0.3,0.1,0.1,0.5,0.1,0.8C90.6,60,90.7,59.3,90.9,59.2z M84.9,63.8
				c0.6,0,1.1-0.9,1-1.1c0.4-0.1,1-1.1,1.8-1.1c-1.2,1.2-2,3-3.4,4C84.3,64.6,85.1,64.5,84.9,63.8z M84.7,61.4
				c-0.5,0.5-0.8,1.2-1.5,1.4C83.3,62.3,83.9,61.4,84.7,61.4z M83.4,63.1c-0.4,0.7-0.9,1.3-1.3,2.1c-0.1-0.8,0.6-1.7,1-2.3
				C83.2,62.9,83.2,63.1,83.4,63.1z M83.4,61.8c-0.3,0.4-0.5,0.9-1,0.9C82.8,62.5,82.8,61.7,83.4,61.8z M82.9,58.6
				c-0.1,0.9-1.6,1.1-2.4,1.5C80.9,59.6,82.3,59.2,82.9,58.6z M79.3,55.4c0.3,1.2-0.6,2.9-0.9,4.1C78.5,58.4,79.2,56.6,79.3,55.4z
				 M77.3,54.9c0.1,0.5,0.1,1,0,1.6C77.2,56.1,77,55.4,77.3,54.9z M56.2,73.6c1-1,2.5-0.7,3.6-1.4c0.3-0.2,0.4-0.5,0.7-0.7
				c0.8-0.6,2-0.6,2.8-1.2c0.3,0,0.1,0.1,0.1,0.2C61.2,71.8,59,73.1,56.2,73.6z M56.8,74.5c0.5-0.7,1.7-0.5,2.4-0.9
				C59.4,73.9,57.4,74.4,56.8,74.5z M56.5,72.4c0.4-0.2,0.9-0.4,1.4-0.4C57.6,72.3,57.1,72.5,56.5,72.4z M64.4,68.7
				c0.1,0.6-1.5,1.5-2.3,1.9C62.3,69.8,63.8,69.5,64.4,68.7z M62.7,69.1c0.9-0.9,1.9-1.6,2.8-2.4C65.1,67.6,63.8,68.6,62.7,69.1z
				 M65.9,70.1c-1.5,1.1-3.4,1.9-5.3,2.5C62.4,71.8,64.1,70.9,65.9,70.1z M64.3,70.4c0.2-0.4,0.8-0.3,0.9-0.8c-0.3-0.3-0.6,0-0.9,0
				c1.8-1.3,3.2-3.2,5.2-4.3c-0.5,0.8-1.2,1.3-2,1.7c1.3,0.1,1.7-1.9,3.1-2c-0.6,1-1.4,1.7-2.5,2.1c0.1,0.3,0.5,0.1,0.7-0.1
				C68,68.6,66.2,69.9,64.3,70.4z M65.6,65.8c0.2-0.3,0.6-0.2,1-0.3C66.4,65.7,66,65.7,65.6,65.8z M75.9,57.3
				c-0.2,0.9-0.8,2-1.3,2.9c-0.5,0.9-1,2.1-2,2.3C73.7,60.9,74.9,59.2,75.9,57.3z M75.2,54.9c0.4,1.1-0.7,2.4-1,3.4
				C74,57.2,74.3,55.7,75.2,54.9z M73.8,58.6c-0.4,0.9-0.9,1.7-1.5,2.4c-0.5,0.7-1,1.6-1.9,1.9c1.1-1.6,2.4-2.9,3.4-4.6
				C74,58.4,74,58.6,73.8,58.6z M71.4,65c0.3,0.6-1.1,1.3-1.5,2C69.9,66.2,71,65.7,71.4,65z M70.5,64.6c0.2-0.1,0.4-0.1,0.7,0
				C71.2,64.8,70.4,65.1,70.5,64.6z M69.4,63.3c-0.5-0.1-0.8,0.2-1.3,0.2c0.4-0.3,0.8-1.3,1.4-0.9c1.5-1.8,2.5-3.8,3.8-5.5
				c0,0,0-0.1,0-0.1C73.5,58.5,70.3,62.1,69.4,63.3z M69,63.6c-0.1,0.5-0.9,0.2-1.2,0.4C67.7,63.7,68.6,63.6,69,63.6z M68.1,65.7
				c-0.2,0.5-0.7,0.6-1,1.1C66.6,66.3,67.3,65.4,68.1,65.7z M70.2,67.1c1.1-1.2,1.9-2.7,3.8-2.7c-1.6,2.3-3.8,3.7-5.9,5.3
				C68.5,68.9,69.3,68,70.2,67.1z M73,64.2c0.2-0.4,0.8-0.3,1.3-0.4C73.9,64.1,73.5,64.2,73,64.2z M74,63c0.3-0.3,0.7-0.6,1.2-0.5
				c-0.2,0.8-0.6-0.1-0.8,0.6C74.3,63,74.1,63,74,63z M74.1,62.2c-0.1-0.6,0.6-1.2,1-1.8c0.5-0.6,0.9-1.4,1.3-2
				C76.1,59.8,75.1,61.3,74.1,62.2z M74.2,59.2c0.8-1.6,1.7-3.8,1.8-6.2C77,55.2,75.1,57.6,74.2,59.2z M75.2,51.7
				c-0.5-0.5,0-1.8-0.2-2.4C75.7,49.7,75.4,50.7,75.2,51.7z M73.8,56.4c-0.2-0.9,0.5-2.8,1.1-3.7C74.8,53.9,74.1,55.2,73.8,56.4z
				 M74.5,48c-0.3-0.3-0.5-0.6-0.6-1C74.3,47.2,74.5,47.5,74.5,48z M60.2,44.3c-1.6,0.9-4,0.6-5.5,1.7C55.8,45,58.2,44.5,60.2,44.3z
				 M43.4,51.2c-0.8,0.7-1.2,1.8-2.1,2.2c0.1-1.1,1.2-1.6,1.9-2.3c0.8-0.7,1.5-1.4,2.2-2.1C45.5,50,44.2,50.6,43.4,51.2z M44.1,52.8
				c-0.3,0.6-0.8,0.9-1.2,1.3C42.9,53.7,43.6,53,44.1,52.8z M45.8,50.5c-0.2,0.5-0.9,0.3-1.1,0.8C44.5,50.8,45.4,50.7,45.8,50.5z
				 M45.1,48.9c-0.3,0.3-1,1.2-1.8,1.4c2.4-2.6,5.3-4.6,8.6-6C50.2,46,47.4,47.5,45.1,48.9z M52.7,45.3c-0.3,0.8-1.3,0.8-1.9,1.2
				C50.5,45.9,51.9,45.4,52.7,45.3z M47.7,48.8c-0.4,0.5-1.1,0.6-1.5,1.1C46.2,49.4,47.1,48.9,47.7,48.8z M48.4,49.1
				c0.1,0.5-1.7,1.4-2.3,1.9C46.2,50,47.7,49.7,48.4,49.1z M47.9,48.2c0.7-0.7,1.8-1.9,2.6-1.5C49.9,47.6,49.1,48.6,47.9,48.2z
				 M52.7,46.8c0-0.3-0.2,0.1-0.5-0.1c0.4-0.4,1-0.5,1.3-1.1c1.3-0.4,2.4-1,3.8-1.1c-3.3,0.9-5.1,3.2-8.4,4.3
				C49.6,47.7,51.4,47.6,52.7,46.8z M58.6,45.2c-1.8,0.8-3.9,1.4-5.8,2.1C54.5,46.2,56.5,45.7,58.6,45.2z M53.2,45.5
				c1.7-1.2,4-1.6,6.4-1.9C57.5,44.3,55.2,44.7,53.2,45.5z M58.6,43c-1.5,0.4-2.8,0.9-4.3,1.3C55.4,43.6,57.5,42.8,58.6,43z M58,42
				c-6.1,1.5-11.3,4-15.2,8.4c0,0.2,0.1,0.3,0.1,0.5c-0.6,0.5-1.1,1.1-1.7,1.6c0.9-4.2,5.8-6.7,8.6-8.4c1.8-0.9,3.6-1.8,5.7-2.2
				c-0.7,0.4-1.5,0.7-2.2,1.1C54.6,42.8,55.9,41.6,58,42z M52.6,41.3c-0.3,0.2-0.6,0.4-1.1,0.4C51.8,41.5,52.1,41.3,52.6,41.3z
				 M45.3,43.5c-0.5,0.5-1.2,0.8-1.7,1.4C43.7,44.3,44.7,43.8,45.3,43.5z M46.2,43.5c0.2,0.5-0.9,0.8-1.5,1.2
				c-0.5,0.3-0.9,0.8-1.3,1.1C43.8,44.9,45.3,44.2,46.2,43.5z M48.9,42.7c0.2,0.1,0,0.2,0,0.3c-2.3,0.8-3.8,2.6-5.8,3.8
				C44.5,44.9,46.7,43.7,48.9,42.7z M48.6,43.4c0.2,0,0.2,0.2,0.4,0.2c1.3-1.3,3.4-1.5,5.3-2c0,0,0.1,0,0.1,0
				c0.1,0.3-0.5,0.3-0.9,0.5c-3.6,1.3-6.6,2.9-9.6,5.4c-0.5,0.4-0.8,1-1.7,0.9C44.1,46.2,46.3,44.8,48.6,43.4z M42,46.2
				c0.1,0.5-0.9,1.7-1.6,1.9C40.8,47.2,41.6,47,42,46.2z M37.6,58.2c0.2,0.5,0.3,1.1,0.4,1.7C37.4,59.6,37.5,59,37.6,58.2z M38.3,58
				c-0.2-0.1-0.3-0.6-0.1-0.7C38.6,57.2,38.2,57.8,38.3,58z M37.2,55.6c0.3-1.3,0.4-2.8,1.2-3.5C38.2,53,37.8,55,37.2,55.6z
				 M39.3,61c-0.3-0.1-0.3-0.3-0.4-0.6C39.2,60.4,39.4,60.6,39.3,61z M39.1,53.5c0.3-2.5,1.6-4.5,3-6.2c0.2,0,0.2,0.1,0.2,0.3
				C41,49.3,40,51.3,39.1,53.5z M41,51.6c0.1-0.4,0.2-0.7,0.5-0.6C41.3,51.1,41.4,51.7,41,51.6z M45.1,62C41.7,62.2,40,59.1,42,56
				c0.6-1,2.1-2.4,3-3.3c2.8-2.8,5.9-3.8,9.6-5.6c0.2-0.1,0.5-0.4,0.8-0.5c2.3-0.9,4.8-1,7.5-1.8c2.7-0.8,8.3-0.7,10.4,1.7
				c1.1,1.3,2.1,4.1,1.4,5.9c-1.2,3.3-2,5.7-4.1,8.3c-0.5,0.7-2.3,2.5-3,2.9l-4.2,3.3l0,0c-0.2,0.3-0.7,0.5-1.1,0.8
				c-3.7,2.6-8.8,4.4-14.4,4.5c0-0.5,0.4-0.9,0.8-1.3l0-0.1l3.9-4.6c0,0,0,0,0-0.1c1.7-1.6,3.3-3.5,5.2-5.3c2.7-2.5,5-4.9,8.3-6.5
				c0.6-0.3,2.9-0.8,3.1-1.2c0.2-0.3,0.2-1.4,0.1-1.8c-0.1-1-1.1-1.9-1.3-2.5c-2-1.1-4.3-0.5-5.8,0.4c-3.1,1.8-6.4,4.9-9.2,7.5
				C50.7,59,48.6,61.8,45.1,62z M51.6,74.5c-1.1,0.3-2.4,0.3-3.8,0.2C48.8,74.3,50.3,74.5,51.6,74.5z M46.7,65.7
				c0-0.5,0.7-1.3,1.2-1.6c0-1.1,1.1-1.6,1.6-2.4C49,63.1,47.8,64.7,46.7,65.7z M47.2,66.9c-0.5-0.2,0.4-0.6,0.4-1
				C47.8,66.2,47.4,66.7,47.2,66.9z M56.6,55.3c0.5-0.4,1-1.2,1.7-1c-1.3,1.3-2.8,2.2-4,3.6C54.7,56.9,55.7,56.1,56.6,55.3z
				 M55.8,55.2c0.4-0.4,0.9-0.8,1.3-1.2C57.1,54.4,56.4,55,55.8,55.2z M52.8,63.2c2.7-3,5.3-6,9-7.8c0.2,0.1,0,0.2,0,0.3
				C58.4,57.8,55.7,60.6,52.8,63.2z M58.4,58.8c-1.3,1.3-2.6,2.7-4.2,3.6C55.5,61.1,56.9,59.9,58.4,58.8z M56.6,58.6
				c0.3,0-1,1.3-1.5,1.8c-1.9,1.9-3.8,4.3-5.8,6C51.3,63.2,53.9,60.8,56.6,58.6z M51.5,60.6c0.2-0.5,0.8-1.6,1.6-1.7
				C52.7,59.6,52,60,51.5,60.6z M50.7,66.7c-0.1,0.4-0.4,0.6-0.9,0.5C50,66.8,50.2,66.6,50.7,66.7z M50.6,66.2
				c0.8-1,1.7-1.9,2.6-2.8c0-0.1,0.2-0.1,0.2-0.1C52.4,64.2,52.1,65.9,50.6,66.2z M59.3,53.6c-0.2-0.3,0.6-0.4,0.8-0.7
				C60.3,53.1,59.6,53.4,59.3,53.6z M59.6,55.9c-0.9,0.9-2,1.5-2.9,2.2C57,57.7,58.7,56,59.6,55.9z M57.7,56.6
				c0.3-0.3,0.6-0.6,0.9-0.8C58.7,56,58,56.4,57.7,56.6z M57.5,55.4c-0.9,1.5-2.9,2.6-4.2,4C54.2,57.9,56.1,56.7,57.5,55.4z
				 M54.2,56.9c-0.8,1.1-1.7,2.1-2.8,3c0.7-1.3,1.6-2.3,2.7-3.1C54.3,56.8,54.3,56.9,54.2,56.9z M51.7,61.4c-1,1.6-2.6,3.6-3.9,5.2
				c0.5-1.2,1.5-2.2,1.6-3.5c0.3-0.2,0.4,0.1,0.6,0.2C50.7,62.9,51.2,62.1,51.7,61.4z M49,67c-0.2,0.2-0.2,0.7-0.7,0.6
				c0-0.3,0.2-0.2,0.2-0.6C48.8,67.4,48.7,66.9,49,67z M46.1,77c0.6,0,2,0.2,2.6,0.6C47.9,77.7,46.7,77.3,46.1,77z M49.5,75.4
				c-0.3-0.3,0.4-0.3,0.7-0.2C50.2,75.5,49.6,75.1,49.5,75.4z M53.8,75.8c-1.3-0.1-1.8,0-3-0.2c1-0.2,2-0.5,3.3-0.4
				C53.9,75.5,54,75.6,53.8,75.8z M50.6,74.1c1.1-0.4,2.9,0,3.9-0.6C53.8,74.5,52,74.1,50.6,74.1z M50,73.4c1.3-0.4,2.7-0.6,4.3-0.6
				C53.1,73.3,51.7,73.4,50,73.4z M53.3,72.2c-0.1,0,0-0.1,0-0.1c4.6-1.1,8.3-3.3,11.8-5.8c-1.8,2.2-4.7,4.3-7.6,5.4
				C56,71.3,54.6,72,53.3,72.2z M55.1,77c-0.1-0.4,0.3-0.2,0.4-0.4c0.1,0,0,0.2,0.2,0.3C55.5,77,55.3,77,55.1,77z M55,75.6
				c0.8-0.4,1.7-0.7,2.8-0.9C57.1,75.4,56.4,76,55,75.6z M66.1,70.9c-2.1,1.9-5.3,2.2-7.2,4.2c-0.5,0-0.8,0.2-1.2,0.3
				C59.7,73.4,63.4,72.5,66.1,70.9z M59.9,75.5c-0.5,0.5-1.4,0.4-2.1,0.8C57.8,75.6,59.2,75.7,59.9,75.5z M58.4,76.9
				c0.1-0.3,0.6-0.2,0.9-0.3C59,76.7,58.8,76.9,58.4,76.9z M65.2,74c-1.6,1-3.8,2-5.9,2.6c3.5-1.8,7.1-3.4,10.2-5.7
				C68.9,71.9,66.7,73.1,65.2,74z M68.4,70.8c-0.1,0.1-0.3,0.1-0.6,0c-1.1,1.5-2.6,1.9-4.4,2.3c3.6-1.8,6.7-4.4,9.7-7.1
				C72.2,67.9,69.9,69.2,68.4,70.8z M72.8,67.3c0.7-0.9,1.4-2.9,2.7-3.3C74.8,65.3,73.8,66.3,72.8,67.3z M75.9,62.4
				c0.1-0.3,0.4-0.2,0.5-0.4C76.8,62.3,76.2,62.5,75.9,62.4z M74.9,61.9c0.6-0.9,1.3-1.7,1.7-2.8C77.1,60.3,76.2,61.8,74.9,61.9z
				 M76.8,61.3c0-0.8,0.8-1,0.8-2.2C78,59.7,77.4,61.1,76.8,61.3z M78.1,61.6c0.5-0.6,1.4-0.7,2.1-1C80,61.2,78.9,61.5,78.1,61.6z
				 M80,70.6c0.4,0.3,0.4,0.8,0.8,1C80.4,71.7,80,71,80,70.6z M80.8,67.6c-0.2-0.2,0.1-0.7,0-1C81.1,66.8,81,67.3,80.8,67.6z
				 M79.8,66.4c0.3-0.9,0.8-1.4,0.8-2.2c-0.3,0-0.1,0.5-0.5,0.4c0.2-0.4,0.2-1.1,0.7-1.2c0,0.4-0.1,0.5-0.2,0.8
				c0.3,0.1,0.4,0,0.5-0.2C80.9,64.7,80.7,66.3,79.8,66.4z M80.5,61.3c0.2-0.3,0.5-0.4,0.9-0.5C81.3,61.3,80.8,61.3,80.5,61.3z
				 M81.4,63.8c-0.4-0.4,0.4-1.3,0.7-1.6C82.5,62.4,81.6,63.3,81.4,63.8z M81.7,68.7c-0.5-3,2.2-5.8,4-7.7c0.2,0,0.2,0.1,0.1,0.1
				C84.2,63.4,82.1,65.1,81.7,68.7z M83.2,67.1c0.2,0.4-0.3,1-0.4,1.6C82.3,68.3,83.1,67.6,83.2,67.1z M84.3,71.8
				c0.5-0.5,1.3-0.6,1.8-1.1C86,71.3,84.9,71.6,84.3,71.8z M87.3,72.6c-0.1-0.2,0.6-0.6,0.9-0.8C88.3,72.1,87.5,72.3,87.3,72.6z
				 M87.3,70c-0.1,0,0.9-0.8,1.2-1.1C88.6,69.3,87.7,69.7,87.3,70z M88,68.8c-1.3,1.1-3.6,3.6-5,1.9c0-4.2,3.2-7.4,5.8-9.6
				c0,1.6,1.3,2.3,3,2.6C91.2,65.9,89.9,67.2,88,68.8z M92,64.6c0.1,1-1.5,2.9-2.3,3.7C90.1,67.2,91.4,66,92,64.6z M89.8,69.4
				c1-1.7,2.8-3.5,3.5-5.9c0.1,0,0.2,0,0.3,0C92.9,65.6,91.6,68.2,89.8,69.4z M95,63.5c0,1.3-1.5,3.1-2.3,4.3
				C93.3,66.6,94.1,64.9,95,63.5z M91.5,70.2c-0.2-0.3,0.2-0.6,0.2-1c0.3,0,0.5,0,0.8-0.2c0.9-1.6,2.2-2.6,3.1-4.2
				C94.9,66.9,93.4,69.1,91.5,70.2z M95.5,66.3c0.6-1,1.1-2.2,1.6-3.4C97.2,63.9,96.3,65.7,95.5,66.3z M98.1,60.9
				c0.2-0.3,0.7-0.1,0.9-0.5C99.3,60.8,98.3,61.2,98.1,60.9z M103.6,63.9c-0.1-0.5,0.2-0.7,0.5-1.1
				C104.4,62.8,103.7,63.5,103.6,63.9z M105,62.9c0.2-0.1-0.4,0.9-0.4,1.3C104.3,63.8,104.9,63.3,105,62.9z M100.2,65.2
				c0.1,0,0.2,0,0.3,0c0,0.4-0.3,0.5-0.2,1C100.1,65.9,100.2,65.8,100.2,65.2z M99.2,65.8c0.1-1,0.6-1.4,0.8-2.3
				C100.3,63.9,99.7,65.4,99.2,65.8z M100.1,67.9c0.3,0.6,0.3,1.4,0.5,2.1C100.1,69.5,100.2,68.6,100.1,67.9z M101,62.2
				c0.6,0.4,0,1-0.3,1.3C100.4,63.2,100.9,62.6,101,62.2z M100.9,68.1c0.3,0.2,0.2,0.7,0.3,1.1C100.8,69,101,68.5,100.9,68.1z
				 M101.1,67.3c-0.6-0.1-0.1-1.4,0-1.7C101.3,66.2,101.2,66.5,101.1,67.3z M100.8,64.9c-0.1-0.7,0.7-1.3,0.9-1.9
				C101.8,63.6,101.5,64.5,100.8,64.9z M101.8,67.9c-0.2-0.9-0.2-2.5,0.5-3C102.1,65.5,102.1,66.8,101.8,67.9z M102.2,64.5
				c0.6-1.3,1.3-2.5,2.2-3.4c-0.3,1.1-1.6,2.5-1.9,3.7C102.4,64.6,102.4,64.5,102.2,64.5z M110.7,61.9c-0.2,1.7-1.1,4.2-2.7,4.9
				C108.9,65.2,110,64.1,110.7,61.9z M110.2,65.3c-0.3-0.2,0.2-0.6,0.2-0.8C110.8,64.8,110.2,65,110.2,65.3z M110.5,65.6
				c-0.4,1-1,1.8-1.9,2.2C109.3,67.1,109.7,66,110.5,65.6z M108.8,68.7c0.2-0.7,0.9-0.9,1.2-1.4C110,67.7,109.4,68.5,108.8,68.7z"/>
		</g>
	</g>
</g>
</svg>
