<?xml version="1.0" encoding="utf-8"?>
<!-- Generator: Adobe Illustrator 22.1.0, SVG Export Plug-In . SVG Version: 6.00 Build 0)  -->
<svg version="1.1" id="Слой_1" xmlns="http://www.w3.org/2000/svg" xmlns:xlink="http://www.w3.org/1999/xlink" x="0px" y="0px"
	 viewBox="0 0 920.9 300" style="enable-background:new 0 0 920.9 300;" xml:space="preserve">
<style type="text/css">
	.st0{fill-rule:evenodd;clip-rule:evenodd;fill:#005B9F;}
</style>
<g>
	<path class="st0" d="M249.6,46.8h-4.2v34.6h-15.8V0.5h15.8v35.8l3.7-1.6l22.3-34.2h18l-23.6,34l-6.2,4.4l6.5,4.5l26.9,38h-19.5
		L249.6,46.8L249.6,46.8z M2.2,0.7h167.4h2h0.2v0.2v2v131.6v0.6l0,0v0l0,0.1v0l0,0.4l0,0v0.8v0.2h0c-0.3,7.9-2.7,16.1-6.9,24
		c-4.3,8-10.5,15.7-18,22.4c-8,7-17.5,13-28,17.1c-9.8,3.8-20.5,6.1-31.7,6.3l-1.2,0h0c-11.1,0-21.7-2-31.5-5.5
		c-10.4-3.8-19.8-9.2-27.8-15.9c-8-6.7-14.6-14.5-19.2-22.9C3,154.1,0.4,145.4,0,136.7h0v-0.2v-1.8v-0.2V2.9v-2V0.7h0.2H2.2L2.2,0.7
		z M62,182h2.5v-7l0.3-1.2l-0.8,1l-1.6,1.1l-1-1.3l4-3.2h1.3V182H69v1.9h-7V182L62,182z M74.8,180.9c0-0.4,0.1-0.8,0.2-1.1
		c0.1-0.3,0.3-0.6,0.5-0.9c0.2-0.3,0.4-0.5,0.7-0.7c0.3-0.2,0.5-0.4,0.9-0.6c-0.6-0.4-1-0.8-1.4-1.3c-0.3-0.5-0.5-1.1-0.5-1.8
		c0-0.5,0.1-0.9,0.3-1.3c0.2-0.4,0.4-0.7,0.7-1c0.3-0.3,0.7-0.5,1.2-0.7c0.5-0.2,1-0.2,1.6-0.2c0.5,0,1,0.1,1.4,0.2
		c0.4,0.1,0.8,0.3,1.1,0.6s0.6,0.6,0.7,0.9c0.2,0.4,0.3,0.8,0.3,1.2c0,0.7-0.2,1.3-0.5,1.8c-0.3,0.5-0.8,0.9-1.4,1.3
		c0.7,0.4,1.2,0.9,1.6,1.4c0.4,0.5,0.5,1.1,0.5,1.9c0,0.5-0.1,1-0.3,1.4c-0.2,0.4-0.5,0.8-0.8,1.1c-0.4,0.3-0.8,0.5-1.3,0.7
		c-0.5,0.2-1,0.3-1.6,0.3c-0.6,0-1.1-0.1-1.6-0.2c-0.5-0.2-0.9-0.4-1.2-0.7c-0.3-0.3-0.6-0.6-0.8-1
		C74.9,181.8,74.8,181.4,74.8,180.9L74.8,180.9z M80.5,180.7c0-0.3-0.1-0.5-0.2-0.7c-0.1-0.2-0.3-0.4-0.5-0.6
		c-0.2-0.2-0.4-0.4-0.7-0.5c-0.3-0.2-0.5-0.3-0.8-0.4c-0.6,0.3-0.9,0.7-1.1,1c-0.2,0.4-0.3,0.7-0.3,1.1c0,0.5,0.2,0.9,0.5,1.2
		c0.3,0.3,0.8,0.5,1.4,0.5c0.5,0,1-0.1,1.3-0.4C80.3,181.6,80.5,181.2,80.5,180.7L80.5,180.7z M77.3,174.6c0,0.3,0.1,0.5,0.2,0.7
		c0.1,0.2,0.2,0.4,0.4,0.6c0.2,0.2,0.4,0.3,0.6,0.4c0.2,0.1,0.5,0.3,0.7,0.4c0.7-0.6,1.1-1.3,1.1-2c0-0.5-0.1-0.9-0.4-1.1
		c-0.3-0.3-0.6-0.4-1.1-0.4c-0.5,0-0.9,0.1-1.1,0.4C77.4,173.9,77.3,174.2,77.3,174.6L77.3,174.6z M87.9,177.7
		c0-2.2,0.4-3.8,1.1-4.8c0.7-1.1,1.8-1.6,3.2-1.6c1.5,0,2.6,0.5,3.3,1.6c0.7,1,1,2.7,1,4.8c0,2.2-0.4,3.8-1.1,4.9
		c-0.7,1.1-1.8,1.6-3.2,1.6c-1.5,0-2.6-0.6-3.2-1.7C88.3,181.4,87.9,179.8,87.9,177.7L87.9,177.7z M90.2,177.7
		c0,1.4,0.2,2.5,0.5,3.3c0.3,0.8,0.8,1.2,1.5,1.2c0.7,0,1.2-0.4,1.5-1.1c0.3-0.7,0.5-1.9,0.5-3.4c0-1.4-0.2-2.5-0.5-3.3
		c-0.3-0.8-0.8-1.2-1.6-1.2c-0.7,0-1.2,0.4-1.5,1.1C90.4,175.1,90.2,176.2,90.2,177.7L90.2,177.7z M110.5,180.5h-1.9v3.4h-2.1v-3.4
		h-5.3v-1.3l5.6-7.7h1.9v7.2h1.9V180.5L110.5,180.5z M106.4,175.9l0.2-1.5h-0.1l-0.6,1.3l-1.8,2.4l-0.9,0.7l1.1-0.1h2.1V175.9
		L106.4,175.9z M60,51.4c-5.2-2.9-7.4,1.3-12.6,2.4c-5.7,1.2-7.2-3.2-9.6-7.2c4,0.8,4.2,2.7,9.4-0.9c3.8-2.6,8.7-0.9,11.5,2.3
		l-3.1-8.5c9.4-0.1,20-1.3,29.3,0l1.2,0.2c9.9,2,17.4,10.4,17.4,21.2c0,7.9-4.5,16.6-11.1,21.3v1c8.8-2,18.9-9.4,19.8-13.5
		c-1.3-0.5-4.4-2.3-4.3-2.5c-3.4-2.5-4.9-7.4-4.1-11.1c0.8-3.7,2.6-5.5,5-7c1.7-0.9,3.3-1.4,5.1-1.6l46.4-6.5
		c0.2,1.6,0.4,3.2,0.4,4.7c1.3,28.4-20.6,52.4-48.9,53.8c-9.7,0.5-22.2-4.9-26.6-14.1c-0.2,0-0.5,0.1-0.7,0.1
		c-1.7,0.2-3.3,0.5-4.7,0.9c-1.5,6.2,11.1,11,25.8,13.3l-2.3,3.4c2.8-0.9,5.7-1.3,8.8-1.3c16.1,0,29.1,13,29.1,29.1
		c0,16.1-13,29.1-29.1,29.1c-16.1,0-29.1-13-29.1-29.1c0-1.7,0.1-3.3,0.4-4.8l1,0.1l17.6,1.2c-0.9,1.4-1.4,3.1-1.4,4.9
		c0,5.2,4.2,9.4,9.4,9.4c5.2,0,9.4-4.2,9.4-9.4c0-5.1-4.1-9.3-9.2-9.4l0-0.1l-1.2,0.1c-0.1,0-0.2,0-0.3,0l-15.2,1.8
		c-6.6,1.1-12.4,1.5-17.3,1.4l-21,28.6l-2.6-7c-14.8-1.2-9.7,5.6-6.4,8.4c0.3,0.3,0.3,1.4,0,1.7C40.7,157.3,36,153,36,147.3
		c0-5.7,4.7-10.6,10.6-10.6c3.9,0,7.3,2.1,9.1,5.2l9.5-30.1h-1.5l-5.8,8.3c-3.4-3.6-6.1-7.8-7.7-12.6l-16.1-20
		c-0.7,1.5-1.7,2.9-3,3.9l-3.2-8.5c-7.1-0.4-11.5,1.4-7.8,6.8l1.5,0l-0.2-2.7h4.5l-0.7,9.4l0,0.1h0l0,0.2h-3.1l0-0.6l-0.2-3
		c-4.1-1.5-7.9-4.7-7.9-9.8c0-3.9,2.7-7.9,6.5-9.7l-2.1-27.4l-5-6.3h8.4c-0.3-3.5,0.8-7.3,2.8-10.4c-1.9,0.3-3.6,1.3-5.3,4.1
		c-1.1-6,3.9-13.8,10.8-12.6c6.9,1.2,6.3-0.8,9.9-3.5c-0.3,2.2-0.3,4.5-0.8,6.4c7.1,0.8,6.8-1.8,11.4-5.2C49.8,25.8,50.6,33,41.9,35
		c-7.9,1.8-13.8-2.8-19.2,5h1h10.3l-5,6.3l-2,26.8c1.7,0.4,3.3,1.2,4.5,2.4l12.9,7.7l2.8,10.4h1.3c1.4-17.5,15.7-31.3,33.5-31.8
		l-0.7-1.7l-17.8,0.1L60,51.4L60,51.4z M59.2,48.6c0.6,0.7,1,1.5,1.4,2.3c7.6,1.4,21.7,10.1,17-2.3H59.2L59.2,48.6z M71.6,23.2h4.6
		v1.1h1.4v3.6c-0.9,0.4-1.6,1.3-1.6,2.4c0,1.1,0.7,2.1,1.8,2.4l0,0l0,0l0,0l0,0h0l0,0h0l0,0l0,0h0l0,0l0,0l0,0h0l0,0l0,0l0,0l0,0
		l0,0l0,0l0,0l0,0l0,0l0,0l0,0l0,0h0l0,0h0l0,0l0,0l0,0l0,0l0,0l0,0l0,0l0,0l0,0l0,0l0,0l0,0h0l0,0h0l0.1,0h0l0,0h0h0h0
		c1.4,0,2.6-1.1,2.6-2.6l0,0v0l0,0l0,0c0,0,0-0.1,0-0.1l0,0v0l0,0v0c0-0.1,0-0.1,0-0.2l0,0l0,0v0l0-0.1l0,0l0,0l0-0.1l0,0l0,0
		c-0.1-0.4-0.3-0.7-0.6-1l0,0l0,0l0,0v0l0,0l0,0l0,0l0,0l0,0l0,0h0l0,0l0,0l0,0c0,0-0.1,0-0.1-0.1l0,0l0,0l0,0l0,0l0,0l0,0l0,0
		c0,0-0.1,0-0.1-0.1v0c0,0-0.1,0-0.1-0.1l0,0l0,0l0,0l0,0v-0.7c0-2.1,1.9-4.9,4-4.9l3.9-0.1L82,36.9l-16,0.1l-5.6-14.6l3.7,0.1
		c2.1,0,4,2.8,4,4.9v0.7c-0.5,0.2-0.9,0.6-1.2,1.2l0,0l0,0l0,0l0,0.1l0,0l0,0l0,0l0,0l0,0l0,0l0,0.1l0,0l0,0l0,0l0,0
		c0,0.1-0.1,0.2-0.1,0.3l0,0c0,0.1,0,0.2,0,0.2v0c0,0,0,0.1,0,0.1l0,0v0l0,0.1l0,0l0,0c0,1.4,1.1,2.6,2.6,2.6h0h0h0l0,0h0l0.1,0h0
		l0,0l0,0l0,0l0,0l0,0l0,0l0,0l0,0l0,0l0,0l0,0l0,0l0,0l0,0l0,0l0,0l0,0l0,0l0,0l0,0l0,0l0,0l0,0l0,0h0l0,0l0,0l0,0l0,0l0.1,0l0,0
		c1.1-0.3,1.9-1.3,1.9-2.5c0-1.1-0.7-2-1.6-2.4v-3.6h1.4V23.2L71.6,23.2z M135.6,111.3c12.3-5,23.7-13.3,26.3-34.1
		c-2.4,10.3-7.8,15.9-14.4,19.1c-7.1,3.4-15.8,3.8-24.2,3.9C129,102.6,132.8,106.1,135.6,111.3L135.6,111.3z M167.4,5.1H4.5v127.1h0
		l0,0.2l0,1.4v0.6h0v0.2c0,8.4,2.3,16.8,6.6,24.8c4.3,8.2,10.7,15.8,18.5,22.3c7.6,6.3,16.5,11.5,26.4,15.1c9.3,3.3,19.4,5.2,30,5.2
		l0,0h1.2c10.6-0.1,20.8-2.3,30.1-6c10.1-4,19.1-9.6,26.7-16.3c7.3-6.5,13.2-13.9,17.3-21.6c4-7.6,6.2-15.4,6.2-23
		c0-0.3,0-0.4,0-0.4h0v-0.1h0v0h0v-0.2v-0.3h0l0-1.7l0-0.2h0V5.1L167.4,5.1z M746.5,251.5h-16.6v47.6h-6.3v-47.6H707v-5.6h39.5
		V251.5L746.5,251.5z M668,245.8h29v5.6h-22.7v17.4h20.8v5.6h-20.8v18.9h23.1v5.6H668V245.8L668,245.8z M656.8,251.5h-16.6v47.6
		h-6.3v-47.6h-16.6v-5.6h39.5V251.5L656.8,251.5z M599.9,263l0.5-6.1H600l-3.3,6.2L571,299.1h-3.7v-53.3h6.3v36.5l-0.5,6h0.3
		l3.3-6.2l25.7-36.3h3.7v53.3h-6.3V263L599.9,263z M554.6,296.9c-1.5,1.2-3.4,2-5.8,2.4c-2.3,0.5-4.8,0.7-7.5,0.7
		c-3.2,0-6.2-0.5-9-1.6c-2.8-1.1-5.2-2.8-7.3-5c-2.1-2.2-3.7-5.1-4.9-8.6c-1.2-3.5-1.8-7.6-1.8-12.4c0-5,0.7-9.2,2-12.7
		c1.3-3.5,3.1-6.3,5.3-8.5c2.2-2.2,4.7-3.8,7.4-4.8c2.7-1,5.5-1.5,8.4-1.5c3,0,5.5,0.2,7.5,0.5c1.9,0.3,3.6,0.8,4.9,1.3l-1.5,5.6
		c-2.4-1.2-5.9-1.8-10.4-1.8c-2.1,0-4.1,0.4-6.2,1.1c-2,0.8-3.8,2-5.4,3.7c-1.6,1.7-2.9,4-3.8,6.8c-1,2.8-1.4,6.2-1.4,10.3
		c0,3.7,0.5,6.8,1.4,9.6c0.9,2.7,2.2,5,3.8,6.8c1.6,1.8,3.5,3.2,5.6,4.1c2.2,0.9,4.5,1.4,7,1.4c2.3,0,4.3-0.2,6-0.7
		c1.7-0.5,3.1-1,4.3-1.7L554.6,296.9L554.6,296.9z M476,246.4c1.9-0.5,4-0.8,6.2-0.9c2.2-0.2,4.4-0.2,6.6-0.2c2.3,0,4.7,0.2,7.1,0.7
		c2.4,0.5,4.6,1.3,6.6,2.5c2,1.2,3.6,2.9,4.8,5c1.2,2.1,1.9,4.8,1.9,8.1c0,3.2-0.6,6-1.8,8.2c-1.2,2.2-2.7,4-4.6,5.4
		c-1.9,1.4-4.1,2.4-6.6,3c-2.5,0.6-5,0.9-7.7,0.9c-0.3,0-0.7,0-1.3,0c-0.6,0-1.2,0-1.8,0c-0.6,0-1.3-0.1-1.9-0.1
		c-0.6-0.1-1-0.1-1.3-0.2v20.2H476V246.4L476,246.4z M489,250.7c-1.3,0-2.6,0-3.8,0.1c-1.2,0.1-2.2,0.2-2.9,0.4v22.1
		c0.3,0.1,0.7,0.2,1.2,0.2c0.6,0,1.1,0.1,1.7,0.1c0.6,0,1.2,0,1.8,0s1,0,1.2,0c1.7,0,3.4-0.2,5.1-0.5c1.7-0.3,3.2-0.9,4.6-1.8
		c1.4-0.9,2.5-2.1,3.3-3.7c0.8-1.6,1.3-3.6,1.3-6c0-2.1-0.4-3.8-1.2-5.2c-0.8-1.4-1.8-2.5-3.1-3.3c-1.3-0.8-2.8-1.4-4.4-1.8
		C492.2,250.9,490.6,250.7,489,250.7L489,250.7z M431.9,245.8h29v5.6h-22.7v17.4H459v5.6h-20.8v18.9h23.1v5.6h-29.4V245.8
		L431.9,245.8z M416.2,258c0,1.3-0.2,2.6-0.6,3.9c-0.4,1.3-1,2.5-1.8,3.7c-0.8,1.1-1.9,2.1-3.1,3c-1.3,0.9-2.8,1.5-4.5,2v0.3
		c1.5,0.3,3,0.7,4.4,1.3c1.4,0.6,2.6,1.4,3.7,2.5c1.1,1.1,1.9,2.4,2.6,3.9c0.7,1.5,1,3.3,1,5.4c0,2.7-0.6,5.1-1.7,7.1
		c-1.1,2-2.6,3.6-4.5,4.9c-1.9,1.3-4,2.2-6.4,2.8c-2.4,0.6-4.8,0.9-7.3,0.9c-0.9,0-1.9,0-3,0c-1.2,0-2.4,0-3.7-0.1
		c-1.3-0.1-2.5-0.2-3.8-0.3c-1.3-0.1-2.4-0.3-3.3-0.6v-52.4c1.9-0.3,4.1-0.6,6.5-0.8c2.5-0.2,5.2-0.3,8.1-0.3c2,0,4,0.2,6,0.5
		c2.1,0.3,3.9,1,5.6,1.9c1.7,0.9,3.1,2.2,4.1,3.9C415.7,253.2,416.2,255.4,416.2,258L416.2,258z M398.6,294.2c1.6,0,3.2-0.2,4.7-0.6
		c1.5-0.4,2.9-1,4-1.8c1.2-0.8,2.1-1.9,2.8-3.1c0.7-1.2,1-2.7,1-4.3c0-2.1-0.4-3.8-1.3-5c-0.8-1.3-1.9-2.3-3.3-3
		c-1.3-0.7-2.9-1.2-4.5-1.4c-1.7-0.3-3.3-0.4-5-0.4h-6.6v19.1c0.4,0.1,0.9,0.2,1.5,0.2c0.7,0.1,1.4,0.1,2.1,0.2
		c0.8,0.1,1.5,0.1,2.4,0.1C397.3,294.2,398,294.2,398.6,294.2L398.6,294.2z M394.4,269.3c0.9,0,1.9,0,3.1-0.1c1.2-0.1,2.2-0.1,3-0.2
		c1.2-0.4,2.4-0.9,3.4-1.5c1.1-0.6,2-1.3,2.9-2.1c0.8-0.8,1.5-1.7,2-2.7c0.5-1,0.7-2.2,0.7-3.4c0-1.7-0.3-3.1-1-4.1
		c-0.6-1.1-1.5-2-2.5-2.6c-1.1-0.7-2.3-1.1-3.7-1.4c-1.4-0.3-2.8-0.4-4.2-0.4c-1.7,0-3.2,0-4.6,0.1c-1.4,0.1-2.4,0.2-3.2,0.3v18.1
		H394.4L394.4,269.3z M361.6,263l0.5-6.1h-0.3l-3.3,6.2l-25.7,35.9H329v-53.3h6.3v36.5l-0.5,6h0.3l3.3-6.2l25.7-36.3h3.7v53.3h-6.3
		V263L361.6,263z M306.4,274.7h-25.6v24.4h-6.3v-53.3h6.3V269h25.6v-23.2h6.3v53.3h-6.3V274.7L306.4,274.7z M244.1,273.9l2,6.8h0.4
		l1.5-7l10.2-27.8h6.5l-13.5,34.6c-1.4,3.6-2.6,6.6-3.6,9c-1,2.4-2.1,4.4-3.2,5.9c-1.1,1.5-2.2,2.6-3.4,3.2c-1.2,0.6-2.7,1-4.5,1
		c-1.7,0-3-0.1-4-0.4c-1-0.3-1.9-0.7-2.8-1.3l1.9-5.2c1,0.6,2,0.9,2.8,1.1c0.9,0.2,1.6,0.2,2.4,0.2c1.4,0,2.6-0.7,3.6-2.2
		c1-1.4,1.8-3.6,2.5-6.4l-19.7-39.4h7.3L244.1,273.9L244.1,273.9z M905.9,156.1l0.6-8.2h-0.3l-5,8.4l-20.6,26.1h-9.5v-57.8h15v27.5
		l-0.7,7.9h0.5l4.7-8.2l20.8-27.2h9.5v57.8h-15V156.1L905.9,156.1z M889.8,101.1c0.5,3,1.4,5.1,2.7,6.4c1.3,1.2,2.9,1.8,4.9,1.8
		c2.2,0,3.9-0.6,5.1-1.8c1.3-1.2,2.1-3.3,2.6-6.2l11.4,2.9c-0.9,5-3.2,8.7-6.8,11.2c-3.6,2.4-7.9,3.6-12.7,3.6
		c-2.4,0-4.7-0.3-6.9-0.8c-2.2-0.5-4.2-1.4-6-2.6c-1.8-1.2-3.3-2.7-4.5-4.6c-1.2-1.8-2.1-4.1-2.5-6.8L889.8,101.1L889.8,101.1z
		 M804.9,169.9c2.3,0.5,4.5,0.7,6.6,0.7c3.5,0,5.9-0.6,7.3-1.9c1.4-1.3,2.1-3.3,2.1-6c0-2.5-0.7-4.3-2.1-5.6
		c-1.4-1.3-3.7-1.9-6.9-1.9c-2.5,0-4.9,0.3-6.9,0.8V169.9L804.9,169.9z M804.9,145.3c1.8-0.3,3.7-0.5,5.6-0.6
		c1.9-0.1,3.6-0.2,5.1-0.2c3.9,0,7.2,0.4,9.8,1.3c2.6,0.9,4.7,2.1,6.4,3.8c1.6,1.6,2.8,3.5,3.5,5.7c0.7,2.2,1,4.6,1,7.1
		c0,3.5-0.5,6.5-1.4,9.1c-0.9,2.6-2.4,4.8-4.5,6.5c-2.1,1.7-4.8,3-8.1,3.9c-3.3,0.9-7.4,1.3-12.2,1.3c-4.4,0-8.2-0.1-11.4-0.2
		c-3.2-0.2-6.1-0.3-8.8-0.6v-57.8h15V145.3L804.9,145.3z M842.9,124.7h15v57.8h-15V124.7L842.9,124.7z M761.6,159.7h-18.8v22.8h-15
		v-57.8h15v21.7h18.8v-21.7h15v57.8h-15V159.7L761.6,159.7z M686.2,169.9c2.3,0.5,4.5,0.7,6.6,0.7c3.7,0,6.4-0.6,8-1.9
		c1.7-1.3,2.5-3.3,2.5-6c0-5-3.4-7.5-10.2-7.5c-2.5,0-4.9,0.3-6.9,0.8V169.9L686.2,169.9z M686.2,145.3c1.8-0.3,3.7-0.5,5.6-0.6
		c1.9-0.1,3.6-0.2,5.1-0.2c4,0,7.4,0.4,10.2,1.3c2.8,0.9,5,2.1,6.8,3.8c1.7,1.6,3,3.5,3.8,5.7c0.8,2.2,1.2,4.6,1.2,7.1
		c0,7-2.1,12.2-6.2,15.7c-4.2,3.5-11.2,5.2-21.1,5.2c-4.4,0-8.2-0.1-11.4-0.2c-3.2-0.2-6.1-0.3-8.8-0.6v-57.8h15V145.3L686.2,145.3z
		 M643.1,138h-11.4c-0.5,5.5-1,10.9-1.6,16.3c-0.6,5.4-1.6,10.2-2.9,14.5c-1.3,4.3-3.2,7.7-5.5,10.4c-2.3,2.7-5.3,4-9,4
		c-4.5,0-7.6-0.6-9.5-1.7l1.8-12.5c1.2,0.5,2.4,0.7,3.5,0.7c1.5,0,2.9-0.7,4-2c1.2-1.3,2.1-3.7,2.9-7c0.8-3.4,1.5-8,2-13.8
		c0.5-5.8,0.9-13.2,1.1-22.1h39.6v57.8h-15V138L643.1,138z M554,128.1c3.1-1.4,6.7-2.5,11-3.3c4.2-0.8,8.7-1.2,13.3-1.2
		c4,0,7.4,0.5,10.1,1.4c2.7,1,4.8,2.3,6.4,4.1c1.6,1.8,2.7,3.9,3.4,6.4c0.7,2.5,1,5.2,1,8.3c0,3.4-0.1,6.8-0.3,10.2
		c-0.2,3.4-0.4,6.8-0.4,10.1c0,3.3,0.1,6.5,0.3,9.6c0.2,3.1,0.8,6.1,1.7,8.8h-12.2l-2.4-8h-0.6c-1.5,2.4-3.7,4.4-6.4,6.2
		c-2.7,1.7-6.3,2.6-10.6,2.6c-2.7,0-5.1-0.4-7.3-1.2c-2.2-0.8-4-2-5.5-3.5c-1.5-1.5-2.7-3.3-3.6-5.3c-0.8-2-1.3-4.3-1.3-6.9
		c0-3.5,0.8-6.5,2.4-9c1.6-2.4,3.9-4.4,6.8-5.9c3-1.5,6.5-2.5,10.6-3.1c4.1-0.6,8.7-0.8,13.8-0.5c0.5-4.3,0.2-7.4-0.9-9.3
		c-1.2-1.9-3.7-2.8-7.7-2.8c-3,0-6.2,0.3-9.5,0.9c-3.4,0.6-6.1,1.4-8.3,2.4L554,128.1L554,128.1z M573.1,171.1c3,0,5.4-0.7,7.2-2
		c1.8-1.3,3.1-2.8,3.9-4.3v-7.5c-2.4-0.2-4.7-0.3-6.9-0.1c-2.2,0.2-4.1,0.5-5.8,1c-1.7,0.5-3,1.3-4,2.3c-1,1-1.5,2.3-1.5,3.8
		c0,2.2,0.6,3.8,1.9,5C569.1,170.5,570.8,171.1,573.1,171.1L573.1,171.1z M491.9,124.7h11l1.7,6.9h0.5c2-2.9,4.4-5.1,7.1-6.5
		c2.7-1.4,6.1-2.1,10-2.1c7.2,0,12.7,2.3,16.3,6.9c3.6,4.6,5.4,12,5.4,22.1c0,4.9-0.6,9.4-1.7,13.3c-1.2,4-2.9,7.3-5.1,10.1
		c-2.3,2.8-5,4.9-8.3,6.4c-3.3,1.5-7,2.2-11.3,2.2c-2.4,0-4.4-0.2-5.9-0.5c-1.5-0.3-3.1-0.9-4.6-1.7v23.7h-15V124.7L491.9,124.7z
		 M517.7,135.8c-2.9,0-5.2,0.7-6.9,2.2c-1.7,1.5-2.9,3.7-3.9,6.6v24c1.1,0.8,2.3,1.5,3.5,2c1.3,0.5,2.9,0.8,5,0.8
		c4.3,0,7.6-1.5,9.7-4.6c2.2-3,3.2-8.1,3.2-15.1c0-5.1-0.8-9-2.5-11.8C524.2,137.2,521.5,135.8,517.7,135.8L517.7,135.8z
		 M479.4,177.5c-2.3,1.8-5.5,3.4-9.4,4.7c-4,1.3-8.2,1.9-12.7,1.9c-9.3,0-16.1-2.7-20.5-8.1c-4.3-5.4-6.5-12.9-6.5-22.4
		c0-10.2,2.4-17.8,7.3-22.9c4.9-5.1,11.7-7.6,20.5-7.6c2.9,0,5.8,0.4,8.6,1.2c2.8,0.8,5.2,2,7.4,3.8c2.2,1.8,3.9,4.2,5.2,7.2
		c1.3,3,2,6.7,2,11.2c0,1.6-0.1,3.4-0.3,5.2c-0.2,1.8-0.5,3.8-0.9,5.8h-34.7c0.2,4.9,1.5,8.5,3.8,11c2.3,2.5,6,3.7,11,3.7
		c3.2,0,6-0.5,8.5-1.4c2.5-1,4.4-1.9,5.7-2.9L479.4,177.5L479.4,177.5z M458,135.1c-3.9,0-6.8,1.2-8.7,3.5c-1.9,2.3-3,5.5-3.4,9.4
		h21.5c0.3-4.2-0.3-7.4-1.9-9.6C463.8,136.2,461.3,135.1,458,135.1L458,135.1z M425,195.7h-11l-1.7-13.2h-38.8l-1.7,13.2h-11v-26.5
		h6.8c0.6-0.8,1.4-2.3,2.4-4.3c1-2,1.9-4.8,2.9-8.4c1-3.5,1.8-7.9,2.5-13.2c0.7-5.2,1-11.4,1-18.6h40.2v44.5h8.4V195.7L425,195.7z
		 M401.6,169.9v-32.5h-12.1c-0.2,2.8-0.4,5.7-0.8,8.8c-0.4,3.1-0.9,6.1-1.4,9.1c-0.6,2.9-1.3,5.7-2,8.2c-0.8,2.5-1.6,4.7-2.5,6.4
		H401.6L401.6,169.9z M356.4,177.5c-2.3,1.8-5.5,3.4-9.4,4.7c-4,1.3-8.2,1.9-12.7,1.9c-9.3,0-16.1-2.7-20.5-8.1
		c-4.3-5.4-6.5-12.9-6.5-22.4c0-10.2,2.4-17.8,7.3-22.9c4.9-5.1,11.7-7.6,20.5-7.6c2.9,0,5.8,0.4,8.6,1.2c2.8,0.8,5.2,2,7.4,3.8
		c2.2,1.8,3.9,4.2,5.2,7.2c1.3,3,2,6.7,2,11.2c0,1.6-0.1,3.4-0.3,5.2c-0.2,1.8-0.5,3.8-0.9,5.8h-34.7c0.2,4.9,1.5,8.5,3.8,11
		c2.3,2.5,6,3.7,11,3.7c3.2,0,6-0.5,8.5-1.4c2.5-1,4.4-1.9,5.7-2.9L356.4,177.5L356.4,177.5z M334.9,135.1c-3.9,0-6.8,1.2-8.7,3.5
		c-1.9,2.3-3,5.5-3.4,9.4h21.5c0.3-4.2-0.3-7.4-1.9-9.6C340.8,136.2,338.3,135.1,334.9,135.1L334.9,135.1z M255.7,183.2
		c-1.3,0.5-2.7,0.7-4.1,0.8c-1.4,0.1-2.7,0.1-3.9,0.1c-7,0-12.4-2.5-16.2-7.5c-3.8-5-5.7-12.7-5.7-23c0-9.9,2.1-17.3,6.2-22.4
		c4.2-5.1,10.2-7.6,18-7.6c2.2,0,4,0.2,5.5,0.5v-22.4h14.8v22.5c1.4-0.2,2.6-0.4,3.7-0.5c1.1-0.1,2.1-0.1,3.1-0.1
		c7.6,0,13.4,2.3,17.2,6.8c3.9,4.5,5.8,11.9,5.8,22.1c0,4.9-0.5,9.2-1.6,13.1c-1,3.9-2.6,7.2-4.6,10c-2,2.8-4.4,4.9-7.3,6.4
		c-2.9,1.5-6.2,2.2-10,2.2c-0.7,0-1.7-0.1-3.1-0.2c-1.3-0.1-2.4-0.3-3.3-0.6v22.3h-14.8V183.2L255.7,183.2z M274,135.5
		c-0.8,0-1.4,0.1-2,0.2c-0.6,0.1-1.3,0.3-2.1,0.4v35.8c0.6,0.2,1.3,0.3,2.1,0.3c0.8,0,1.7,0.1,2.6,0.1c3.7,0,6.4-1.5,8.1-4.6
		c1.7-3,2.6-8.1,2.6-15.2c0-6-0.8-10.3-2.5-13C281.1,136.8,278.1,135.5,274,135.5L274,135.5z M251.7,172.2c0.8,0,1.6-0.1,2.4-0.2
		c0.7-0.1,1.5-0.3,2.4-0.4v-35.7c-1.5-0.3-3-0.5-4.5-0.5c-3.5,0-6.3,1.4-8.1,4.1c-1.9,2.7-2.8,7.4-2.8,14c0,6,0.9,10.6,2.6,13.8
		C245.3,170.6,248,172.2,251.7,172.2L251.7,172.2z M731.8,55l0.6-8.2h-0.3l-5,8.4l-20.6,26.1H697V23.6h15v27.5l-0.7,7.9h0.5l4.7-8.2
		l20.8-27.2h9.5v57.8h-15V55L731.8,55z M715.8,0c0.5,3,1.4,5.1,2.7,6.4c1.3,1.2,2.9,1.8,4.9,1.8c2.2,0,3.9-0.6,5.1-1.8
		c1.3-1.2,2.1-3.3,2.6-6.2L742.6,3c-0.9,5-3.2,8.7-6.8,11.2c-3.6,2.4-7.9,3.6-12.7,3.6c-2.4,0-4.7-0.3-6.9-0.8
		c-2.2-0.5-4.2-1.4-6-2.6c-1.8-1.2-3.3-2.7-4.5-4.6c-1.2-1.8-2.1-4.1-2.5-6.8L715.8,0L715.8,0z M668.8,55l0.6-8.2h-0.3l-5,8.4
		l-20.6,26.1h-9.5V23.6h15v27.5l-0.7,7.9h0.5l4.7-8.2l20.8-27.2h9.5v57.8h-15V55L668.8,55z M596.6,57.4h-4v23.9h-15V23.6h15v24.6
		l3.6-1.6l13.5-23h16.1l-14,22l-5.9,4.4l6.5,4.5l15.6,26.9h-17.2L596.6,57.4L596.6,57.4z M568.4,77.8c-2.3,1.7-5.1,3-8.4,3.9
		c-3.3,0.9-6.6,1.3-10.1,1.3c-4.6,0-8.5-0.7-11.7-2.2c-3.2-1.5-5.8-3.5-7.8-6.2c-2-2.7-3.4-5.9-4.3-9.6c-0.9-3.8-1.3-7.9-1.3-12.5
		c0-9.8,2.2-17.3,6.6-22.6c4.4-5.3,10.8-7.9,19.2-7.9c4.2,0,7.6,0.3,10.2,1c2.6,0.7,4.9,1.6,7,2.7l-3.6,12.2c-1.8-0.8-3.5-1.5-5.3-2
		c-1.7-0.5-3.7-0.7-6-0.7c-4.2,0-7.3,1.4-9.5,4.1c-2.2,2.7-3.2,7.1-3.2,13.1c0,2.5,0.3,4.7,0.8,6.8s1.3,3.9,2.4,5.4
		c1.1,1.5,2.5,2.8,4.2,3.6c1.7,0.9,3.8,1.3,6.1,1.3c2.5,0,4.7-0.3,6.5-1c1.8-0.7,3.4-1.4,4.7-2.4L568.4,77.8L568.4,77.8z
		 M499.3,58.6h-18.8v22.8h-15V23.6h15v21.7h18.8V23.6h15v57.8h-15V58.6L499.3,58.6z M407.8,26.9c3.1-1.4,6.7-2.5,11-3.3
		c4.2-0.8,8.7-1.2,13.3-1.2c4,0,7.4,0.5,10.1,1.4c2.7,1,4.8,2.3,6.4,4.1c1.6,1.8,2.7,3.9,3.4,6.4c0.7,2.5,1,5.2,1,8.3
		c0,3.4-0.1,6.8-0.3,10.2c-0.2,3.4-0.4,6.8-0.4,10.1c0,3.3,0.1,6.5,0.3,9.7c0.2,3.1,0.8,6.1,1.7,8.8h-12.2l-2.4-8h-0.6
		c-1.5,2.4-3.7,4.4-6.4,6.2c-2.7,1.7-6.3,2.6-10.6,2.6c-2.7,0-5.1-0.4-7.3-1.2c-2.2-0.8-4-2-5.5-3.5c-1.5-1.5-2.7-3.3-3.6-5.3
		c-0.8-2-1.3-4.3-1.3-6.9c0-3.5,0.8-6.5,2.4-9c1.6-2.4,3.9-4.4,6.8-5.9c3-1.5,6.5-2.5,10.6-3.1c4.1-0.6,8.7-0.8,13.8-0.5
		c0.5-4.3,0.2-7.4-0.9-9.3c-1.2-1.9-3.7-2.8-7.7-2.8c-3,0-6.2,0.3-9.5,0.9c-3.4,0.6-6.1,1.4-8.3,2.4L407.8,26.9L407.8,26.9z
		 M426.9,69.9c3,0,5.4-0.7,7.2-2c1.8-1.3,3.1-2.8,3.9-4.3V56c-2.4-0.2-4.7-0.3-6.9-0.1c-2.2,0.2-4.1,0.5-5.8,1c-1.7,0.5-3,1.3-4,2.3
		c-1,1-1.5,2.3-1.5,3.8c0,2.2,0.6,3.8,1.9,5C422.9,69.3,424.6,69.9,426.9,69.9L426.9,69.9z M364.2,57.4V46.9h7
		c2.7,0,4.9-0.5,6.6-1.6c1.7-1.1,2.6-2.5,2.6-4.3c0-2.1-0.8-3.6-2.3-4.4c-1.5-0.9-3.9-1.3-7-1.3c-3,0-5.7,0.4-8,1.2
		c-2.3,0.8-4.2,1.6-5.5,2.4l-3.2-11.4c2.3-1.3,5.4-2.4,9.2-3.4c3.8-1,7.9-1.4,12.2-1.4c6.6,0,11.6,1.2,14.8,3.7
		c3.3,2.5,4.9,6,4.9,10.7c0,1.3-0.2,2.6-0.5,4c-0.3,1.3-0.9,2.6-1.7,3.9s-1.7,2.3-2.8,3.3c-1.1,1-2.4,1.7-4,2.3v0.5
		c4.1,0.9,7,2.6,8.7,4.9c1.7,2.3,2.5,5.5,2.5,9.4c0,2.5-0.5,4.8-1.5,6.9c-1,2.1-2.5,3.9-4.6,5.5c-2,1.5-4.6,2.8-7.7,3.7
		c-3.1,0.9-6.7,1.4-11,1.4c-4.2,0-7.9-0.4-11-1.3c-3.1-0.9-5.7-1.9-7.8-3.1l3.2-11.7c1.8,1,3.9,1.8,6.4,2.4c2.5,0.6,5.3,0.9,8.4,0.9
		c7,0,10.5-2.2,10.5-6.7c0-2-0.9-3.5-2.7-4.4c-1.8-0.9-5.2-1.4-10.1-1.4H364.2L364.2,57.4z M300.6,26.9c3.1-1.4,6.7-2.5,11-3.3
		c4.2-0.8,8.7-1.2,13.3-1.2c4,0,7.4,0.5,10.1,1.4c2.7,1,4.8,2.3,6.4,4.1c1.6,1.8,2.7,3.9,3.4,6.4c0.7,2.5,1,5.2,1,8.3
		c0,3.4-0.1,6.8-0.3,10.2c-0.2,3.4-0.4,6.8-0.4,10.1c0,3.3,0.1,6.5,0.3,9.7c0.2,3.1,0.8,6.1,1.7,8.8h-12.2l-2.4-8h-0.6
		c-1.5,2.4-3.7,4.4-6.4,6.2c-2.7,1.7-6.3,2.6-10.6,2.6c-2.7,0-5.1-0.4-7.3-1.2c-2.2-0.8-4-2-5.5-3.5c-1.5-1.5-2.7-3.3-3.6-5.3
		c-0.8-2-1.3-4.3-1.3-6.9c0-3.5,0.8-6.5,2.4-9c1.6-2.4,3.9-4.4,6.8-5.9c3-1.5,6.5-2.5,10.6-3.1c4.1-0.6,8.7-0.8,13.8-0.5
		c0.5-4.3,0.2-7.4-0.9-9.3c-1.2-1.9-3.7-2.8-7.7-2.8c-3,0-6.2,0.3-9.5,0.9c-3.4,0.6-6.1,1.4-8.3,2.4L300.6,26.9L300.6,26.9z
		 M319.6,69.9c3,0,5.4-0.7,7.2-2c1.8-1.3,3.1-2.8,3.9-4.3V56c-2.4-0.2-4.7-0.3-6.9-0.1c-2.2,0.2-4.1,0.5-5.8,1c-1.7,0.5-3,1.3-4,2.3
		c-1,1-1.5,2.3-1.5,3.8c0,2.2,0.6,3.8,1.9,5C315.6,69.3,317.4,69.9,319.6,69.9L319.6,69.9z"/>
</g>
</svg>
